<?xml version="1.0" encoding="utf-8"?>
<!-- Generator: Adobe Illustrator 27.3.1, SVG Export Plug-In . SVG Version: 6.00 Build 0)  -->
<svg version="1.1" id="Слой_1" xmlns="http://www.w3.org/2000/svg" xmlns:xlink="http://www.w3.org/1999/xlink" x="0px" y="0px"
	 viewBox="0 0 25 25" style="enable-background:new 0 0 25 25;" xml:space="preserve">
<path d="M12.5,23.4c-6,0-10.9-4.9-10.9-10.9S6.5,1.6,12.5,1.6s10.9,4.9,10.9,10.9S18.5,23.4,12.5,23.4z M12.5,25
	C19.4,25,25,19.4,25,12.5S19.4,0,12.5,0S0,5.6,0,12.5S5.6,25,12.5,25z"/>
<g>
	<path d="M12.5,8.5C12.8,8.5,13,8.7,13,9v3h3c0.3,0,0.5,0.2,0.5,0.5S16.3,13,16,13h-3v3c0,0.3-0.2,0.5-0.5,0.5S12,16.3,12,16v-3H9
		c-0.3,0-0.5-0.2-0.5-0.5S8.7,12,9,12h3V9C12,8.7,12.2,8.5,12.5,8.5z"/>
	<path d="M12.5,8.5C12.8,8.5,13,8.7,13,9v3h3c0.3,0,0.5,0.2,0.5,0.5S16.3,13,16,13h-3v3c0,0.3-0.2,0.5-0.5,0.5S12,16.3,12,16v-3H9
		c-0.3,0-0.5-0.2-0.5-0.5S8.7,12,9,12h3V9C12,8.7,12.2,8.5,12.5,8.5z"/>
</g>
</svg>
