<?xml version="1.0" encoding="utf-8"?>
<!-- Generator: Adobe Illustrator 27.5.0, SVG Export Plug-In . SVG Version: 6.00 Build 0)  -->
<svg version="1.1" xmlns="http://www.w3.org/2000/svg" xmlns:xlink="http://www.w3.org/1999/xlink" x="0px" y="0px"
	 viewBox="0 0 750 500" style="enable-background:new 0 0 750 500;" xml:space="preserve">
<g id="BACKGROUND">
	<rect style="fill:#FFFFFF;" width="750" height="500"/>
</g>
<g id="OBJECTS">
	<g>
		<rect x="48.52" y="99.713" style="fill:#D4D6F9;" width="119.919" height="344.677"/>
		<rect x="402.075" y="53.889" style="fill:#D4D6F9;" width="119.919" height="390.501"/>
		<rect x="234.917" y="145.585" style="fill:#D4D6F9;" width="119.919" height="298.805"/>
		<rect x="581.561" y="200.447" style="fill:#D4D6F9;" width="119.919" height="243.943"/>
	</g>
	<g>
		<path style="fill:#222221;" d="M81.481,164.846c0,0,38.441-4.15,35.709,45.04c-2.732,49.19,2.469,54.535,2.469,54.535
			s-76.927,3.718-86.747-27.398C23.092,205.907,41.669,160.708,81.481,164.846z"/>
		<path style="fill:#271E6D;" d="M206.372,162.699c0,0,39.314-4.469,46.958,32.455c7.644,36.923,33.725,55.962,7.407,79.625
			c-26.318,23.663-72.197,21.707-72.197,21.707l0,0c-19.793-14.634-28.548-39.93-22.03-63.666c2.022-7.362,3.789-15.04,4.841-22.273
			C172.89,199.974,159.17,165.448,206.372,162.699z"/>
		<path style="fill:#BC6F63;" d="M167.962,325.845l17.509-8.181l6.139,19.358c0,0-5.99,3.817-17.849,2.377L167.962,325.845z"/>
		<g>
			<path style="fill:#E8AF8E;" d="M59.414,211.477c0,0-11.417-14.156-16.744-4.11c-5.328,10.046,5.48,23.594,19.636,16.744
				L59.414,211.477z"/>
			<path style="fill:#CF866B;" d="M43.068,217.923c1.035,2.104,2.925,3.771,5.243,4.125c5.964,0.911,9.315-6.853,8.15-13.679
				c1.773,1.648,2.952,3.107,2.952,3.107l2.892,12.634c-12.067,5.839-21.693-3.143-20.974-12.144
				C41.711,214.082,42.178,216.115,43.068,217.923z"/>
			<g>
				<g>
					<g>
						<path style="fill:#222221;" d="M51.494,218.087c-0.029-1.867-0.906-3.839-2.238-5.127c-0.699-0.676-1.527-1.164-2.428-1.519
							c-0.329-0.13-0.719,0.142-0.806,0.457c-0.102,0.372,0.127,0.675,0.457,0.806c0.657,0.259,1.26,0.636,1.747,1.085
							c0.49,0.452,0.78,0.824,1.106,1.4c0.064,0.114,0.126,0.23,0.184,0.347c0.03,0.061,0.06,0.123,0.088,0.186
							c0.019,0.041,0.097,0.224,0.048,0.105c0.094,0.23,0.177,0.464,0.249,0.701c0.115,0.383,0.178,0.769,0.255,1.16
							c-0.038-0.192-0.002-0.016,0.007,0.081c0.006,0.056,0.011,0.113,0.014,0.169c0.003,0.049,0.007,0.099,0.007,0.149
							C50.198,218.929,51.507,218.932,51.494,218.087L51.494,218.087z"/>
					</g>
				</g>
				<g>
					<g>
						<path style="fill:#222221;" d="M49.71,214.204c-0.365,0.083-0.727,0.26-1.042,0.457c-0.736,0.46-1.274,1.123-1.595,1.927
							c-0.233,0.583-0.305,1.234-0.282,1.858c0.012,0.342,0.292,0.671,0.655,0.655c0.344-0.015,0.668-0.288,0.655-0.655
							c-0.005-0.132-0.006-0.264-0.001-0.396c0.003-0.067,0.006-0.133,0.012-0.2c0.002-0.024,0.004-0.048,0.007-0.073
							c0.006-0.063-0.017-0.158,0-0.014c-0.011-0.093,0.037-0.22,0.058-0.311c0.027-0.117,0.059-0.232,0.098-0.346
							c0.015-0.045,0.031-0.089,0.048-0.133c0.063-0.164-0.038,0.073,0.01-0.024c0.044-0.09,0.087-0.179,0.137-0.266
							c0.044-0.077,0.092-0.152,0.143-0.225c0.014-0.02,0.116-0.156,0.04-0.058c-0.073,0.094,0.033-0.039,0.054-0.063
							c0.105-0.123,0.22-0.237,0.343-0.342c0.026-0.022,0.053-0.043,0.079-0.066c0.064-0.056-0.139,0.101-0.02,0.015
							c0.059-0.042,0.118-0.084,0.179-0.124c0.108-0.07,0.221-0.134,0.336-0.192c0.044-0.022,0.088-0.042,0.133-0.063
							c0.012-0.006,0.024-0.01,0.036-0.016c0.076-0.037-0.121,0.05-0.105,0.044c0.025-0.009,0.049-0.02,0.073-0.029
							c0.098-0.038,0.198-0.074,0.3-0.097c0.334-0.076,0.563-0.48,0.457-0.806C50.403,214.311,50.069,214.123,49.71,214.204
							L49.71,214.204z"/>
					</g>
				</g>
			</g>
		</g>
		<path style="fill:#E8AF8E;" d="M64.261,231.35l-0.769,17.057c-0.107,2.365-1.202,4.577-3.019,6.096l-7.611,6.362
			c0,0,14.519,20.14,28.619,20.27c6.909,0.064,14.169-11.653,18.541-19.489l-7.396-6.836c-1.844-1.704-2.833-4.14-2.7-6.647
			l0.57-10.722L64.261,231.35z"/>
		<path style="fill:#A8624B;" d="M63.97,237.805l0.291-6.455l26.235,6.09l-0.526,9.896C87.261,249.462,70.723,258.365,63.97,237.805
			z"/>
		<path style="fill:#E8AF8E;" d="M88.187,170.401c0,0,27.389,7.585,18.216,39.67c-0.372,1.302-0.373,2.675-0.061,3.993
			c1.287,5.444,4.594,22.061-21.443,28.8c-0.995,0.258-2.036,0.294-3.051,0.129c-6.593-1.073-30.719-7.049-31.604-37.14
			C49.218,170.987,88.187,170.401,88.187,170.401z"/>
		<g>
			<g>
				<path style="fill:#222221;" d="M88.055,219.488c0.935-0.439,1.875-1.11,2.475-1.957c0.836-1.181,0.508-2.365-0.259-3.466
					c-0.703-1.011-1.475-1.959-2.033-3.064c-0.839-1.661-1.096-3.5-1.034-5.344c0.035-1.037-1.576-1.036-1.611,0
					c-0.061,1.806,0.17,3.619,0.863,5.297c0.488,1.181,1.173,2.224,1.93,3.247c0.461,0.623,1.371,1.5,0.894,2.306
					c-0.427,0.722-1.294,1.241-2.038,1.59C86.304,218.537,87.121,219.926,88.055,219.488L88.055,219.488z"/>
			</g>
		</g>
		<path style="fill:#D46A55;" d="M76.319,221.152c0,2.679-2.945,4.85-6.578,4.85c-3.633,0-6.578-2.172-6.578-4.85
			c0-2.679,2.945-4.85,6.578-4.85C73.374,216.302,76.319,218.474,76.319,221.152z"/>
		<path style="fill:#D46A55;" d="M105.278,220.864c0,2.679-2.945,4.85-6.578,4.85s-6.578-2.171-6.578-4.85
			c0-2.679,2.945-4.85,6.578-4.85S105.278,218.186,105.278,220.864z"/>
		<g>
			<g>
				<path style="fill:#222221;" d="M75.996,225.053c1.847,2.781,4.496,4.769,7.888,5.053c3.367,0.281,6.77-0.867,9.285-3.109
					c0.776-0.691-0.367-1.827-1.139-1.139c-2.163,1.928-5.075,2.843-7.955,2.652c-2.872-0.191-5.134-1.928-6.688-4.269
					C76.816,223.38,75.42,224.186,75.996,225.053L75.996,225.053z"/>
			</g>
		</g>
		<path style="fill:#222221;" d="M80.637,199.192c0.185,1.543-1.773,0.908-4.667,1.254c-2.894,0.346-5.628,1.543-5.813,0
			c-0.185-1.543,2.012-3.074,4.906-3.42C77.957,196.68,80.452,197.649,80.637,199.192z"/>
		<path style="fill:#222221;" d="M92.612,199.522c-0.185,1.542,1.773,0.908,4.667,1.254c2.894,0.346,5.628,1.543,5.813,0
			c0.185-1.543-2.012-3.074-4.906-3.42C95.292,197.01,92.796,197.98,92.612,199.522z"/>
		<path style="fill:#CF866B;" d="M86.386,235.45c0,0.692-1.098,1.253-2.453,1.253c-1.354,0-2.452-0.561-2.452-1.253
			c0-0.692,1.098-0.381,2.452-0.381C85.288,235.069,86.386,234.758,86.386,235.45z"/>
		<path style="fill:#69BA9F;" d="M52.862,260.864c0,0,20.959,10.937,31.072,10.675c10.113-0.262,16.088-9.895,16.088-9.895
			s20.854,19.261,21.989,36.658c1.135,17.397-5.959,47.983-5.959,47.983s12.917,70.234,10.398,99.825H30.183
			c0,0-17.021-57.615,16.498-96.631l-16.498-74.631L52.862,260.864z"/>
		<path style="fill:#417164;" d="M44.601,390.461c-5.809-4.647-9.252-10.647-12.101-17.015
			c-13.429,35.033-2.317,72.664-2.317,72.664h96.267c1.032-12.125-0.528-31.073-2.729-49.217
			C98.264,407.758,68.756,408.76,44.601,390.461z"/>
		<path style="fill:#583C80;" d="M188.312,345.221v12.448c0,0,40.985,10.569,69.496-6.224l-3.06-10.238L188.312,345.221z"/>
		<path style="fill:#7A5FA0;" d="M186.231,355.639c0,0-22.7,42.704-14.496,90.472h45.457l-6.094-58.488h5.298l3.761,58.488h45.298
			c0,0,12.079-57.102-9.06-93.615C256.395,352.496,222.035,360.977,186.231,355.639z"/>
		<path style="fill:#E8AF8E;" d="M44.062,307.879l21.473,31.09l48.424-12.337l-4.918,12.337c0,0-34.602,26.668-49.267,24.482
			c-14.665-2.186-36.138-47.161-36.138-47.161S31.493,305.295,44.062,307.879z"/>
		<path style="fill:#BC6F63;" d="M229.23,224.712l0.807,17.881c0.112,2.48,1.26,4.799,3.165,6.391l7.979,6.669
			c0,0-12.235,31.959-27.016,32.095c-7.243,0.067-24.206,3.785-22.424-31.277l7.754-7.167c1.933-1.786,2.97-4.34,2.83-6.968
			l-0.598-11.24L229.23,224.712z"/>
		<path style="fill:#863B39;" d="M229.536,231.478l-0.305-6.767l-27.503,6.384l0.552,10.375
			C205.119,243.7,222.457,253.033,229.536,231.478z"/>
		<path style="fill:#BC6F63;" d="M205.563,167.674c0,0-26.129,7.236-17.378,37.846c0.355,1.242,0.355,2.552,0.058,3.809
			c-1.228,5.194-4.383,21.046,20.457,27.475c0.95,0.246,1.942,0.281,2.911,0.123c6.29-1.023,29.306-6.725,30.15-35.432
			C242.738,168.233,205.563,167.674,205.563,167.674z"/>
		<path style="fill:#222221;" d="M217.047,203.567c0,1.705,1.046,3.087,2.336,3.087c1.29,0,2.336-1.382,2.336-3.087
			s-1.046-3.087-2.336-3.087C218.093,200.479,217.047,201.862,217.047,203.567z"/>
		<path style="fill:#222221;" d="M196.84,204.25c0,1.705,1.046,3.087,2.336,3.087s2.336-1.382,2.336-3.087s-1.046-3.087-2.336-3.087
			S196.84,202.545,196.84,204.25z"/>
		<g>
			<g>
				<path style="fill:#222221;" d="M207.817,213.207c-0.608-0.285-1.316-0.709-1.665-1.299c-0.39-0.659,0.354-1.375,0.73-1.884
					c0.618-0.835,1.178-1.688,1.577-2.653c0.567-1.371,0.755-2.852,0.705-4.327c-0.028-0.845-1.345-0.848-1.316,0
					c0.051,1.507-0.159,3.009-0.844,4.366c-0.456,0.903-1.086,1.677-1.661,2.503c-0.627,0.9-0.895,1.865-0.211,2.832
					c0.49,0.693,1.258,1.241,2.022,1.599C207.915,214.701,208.584,213.567,207.817,213.207L207.817,213.207z"/>
			</g>
		</g>
		<path style="fill:#D46A55;" d="M217.431,215.816c0,2.555,2.809,4.627,6.275,4.627c3.466,0,6.275-2.072,6.275-4.627
			c0-2.556-2.81-4.627-6.275-4.627C220.241,211.189,217.431,213.261,217.431,215.816z"/>
		<path style="fill:#D46A55;" d="M189.844,216.677c0,2.555,2.81,4.627,6.275,4.627c3.466,0,6.275-2.072,6.275-4.627
			s-2.81-4.627-6.275-4.627C192.653,212.05,189.844,214.122,189.844,216.677z"/>
		<path style="fill:#222221;" d="M215.643,193.421c-0.176,1.472,1.692,0.866,4.453,1.196c2.761,0.33,5.369,1.472,5.545,0
			c0.176-1.471-1.919-2.932-4.68-3.263C218.2,191.025,215.819,191.95,215.643,193.421z"/>
		<path style="fill:#222221;" d="M201.26,193.946c0.528,1.385-1.431,1.25-4.029,2.241c-2.598,0.99-4.852,2.73-5.38,1.345
			s1.151-3.31,3.749-4.301C198.198,192.241,200.732,192.561,201.26,193.946z"/>
		<path style="fill:#863B39;" d="M208.516,229.731c0,0.66,1.048,1.195,2.34,1.195c1.292,0,2.34-0.535,2.34-1.195
			c0-0.66-1.048-0.364-2.34-0.364C209.564,229.367,208.516,229.071,208.516,229.731z"/>
		<path style="fill:#FFFFFF;" d="M208.101,218.979c0.827,0.746,2.129,0.639,2.835-0.222c1.163-1.419,2.928-2.888,4.589-1.56
			c2.649,2.119-0.965,7.475-6.011,7.786c-5.045,0.311-7.67-5.271-6.353-6.789C204.618,216.514,206.686,217.702,208.101,218.979z"/>
		<path style="fill:#BC6F63;" d="M249.532,256.302c0,0-10.432,28.204-6.863,43.12l18.505,103.545h12.517
			c0,0-7.961-84.717-8.51-113.714C264.631,260.254,249.532,256.302,249.532,256.302z"/>
		<path style="fill:#E79E9E;" d="M191.741,256.471c0,0-3.717-0.483-6.552,0.188c-1.425,0.338-5.532,1.803-5.532,1.803
			s-8.215,39.721-4.722,56.17c3.493,16.45,7.913,30.174,7.913,30.174s18.965,12.078,68.355,0l-9.274-53.274
			c0,0,4.357-28.324,9.274-34.537c0,0-4.295-3.861-13.21-4.008c0,0-12.104,23.051-30.207,22.502
			C189.684,274.942,191.741,256.471,191.741,256.471z"/>
		<g>
			<g>
				<path style="fill:#E8AF8E;" d="M104.823,336.322c7.477-17.762,24.885-8.513,27.004-3.573c3.367,7.85,0.779,17.248-2.917,16.346
					c-3.696-0.902-0.869-6.89-2.266-9.189c0,0,1.317,3.043,0.103,7.693c-0.182,0.696-0.682,1.261-1.36,1.499
					c-1.009,0.355-2.499,0.68-3.306-0.082c-1.296-1.224,1.062-6.479-1.112-9.124c0,0,2.021,2.526,0.54,7.284
					c-0.462,1.485-1.996,2.41-3.509,2.053c-0.785-0.185-1.433-0.57-1.408-1.339c0.063-1.917-0.323-8.215-2.614-8.201
					c-2.291,0.015-9.103,2.574-9.154-3.195C104.823,336.436,104.801,336.374,104.823,336.322z"/>
				<g>
					<g>
						<path style="fill:#222221;" d="M127.634,346.045c0.101-1.176,0.095-2.373,0.012-3.55c-0.119-1.691-0.354-3.842-1.661-5.078
							c-0.525-0.496-1.32,0.296-0.794,0.794c0.54,0.51,0.798,1.248,0.98,1.954c0.219,0.85,0.319,1.724,0.369,2.599
							c0.063,1.089,0.064,2.193-0.029,3.281C126.449,346.765,127.572,346.761,127.634,346.045L127.634,346.045z"/>
					</g>
				</g>
				<g>
					<g>
						<path style="fill:#222221;" d="M122.219,346.651c0.472-1.964,0.615-4.336-0.163-6.232c-0.321-0.783-0.802-1.438-1.491-1.935
							c-0.587-0.424-1.148,0.55-0.567,0.97c1.251,0.904,1.461,2.702,1.451,4.125c-0.007,0.995-0.087,1.834-0.313,2.774
							C120.967,347.054,122.05,347.354,122.219,346.651L122.219,346.651z"/>
					</g>
				</g>
			</g>
			<path style="fill:#274256;" d="M181.02,409.449c0,0,9.296,15.974,5.106,36.662H153l-1.048-9.558h-2.095v9.558H113.37
				c0,0-4.103-18.724,1.789-34.305L181.02,409.449z"/>
			<path style="fill:#DD4D61;" d="M167.159,339.858c0,0,15.615,13.29,15.261,33.454c-0.353,20.164,0.006,31.686,0.006,31.686
				s6.449,4.714,4.878,8.118s-43.923,15.974-78.263,0c0,0-0.734-5.761,4.329-6.154c0,0,0.567-25.27,0-36.793
				c-0.567-11.522,6.503-25.812,6.503-25.812L167.159,339.858z"/>
			<path style="fill:#E9A585;" d="M156.484,317.272l1.051,12.962l9.624,9.624c0,0-16.793,13.159-39.232,2.553l4.992-8.854V316.29
				L156.484,317.272z"/>
			<path style="fill:#A8624B;" d="M157.353,327.986l-0.868-10.714l-23.565-0.982v10.773
				C140.815,335.132,150.598,334.35,157.353,327.986z"/>
			<path style="fill:#CF866B;" d="M105.225,344.357c0,0-0.088,0.329-0.233,0.929c-1.345,5.533-7.657,34.118,3.918,40.215
				c12.83,6.757,62.998-3.952,62.998-3.952l-0.007-8.028l-51.015-5.036l-2.249-18.156"/>
			<path style="fill:#E3E3E3;" d="M106.46,357.656c-4.078,0.847-7.234,4.148-8.144,8.212c-0.618,2.759-0.547,6.053,1.904,8.688
				c5.237,5.63,9.558-0.72,7.791-4.255c-1.768-3.535,6.285-9.206,6.285-9.206S112.297,356.444,106.46,357.656z"/>
			<g>
				<path style="fill:#E9A585;" d="M165.188,291.693c0,0,11.417-14.156,16.744-4.11c5.328,10.046-5.48,23.594-19.636,16.744
					L165.188,291.693z"/>
				<path style="fill:#CF866B;" d="M181.534,298.139c-1.035,2.104-2.925,3.772-5.243,4.125c-5.964,0.911-9.316-6.853-8.15-13.679
					c-1.773,1.648-2.952,3.107-2.952,3.107l-2.892,12.634c12.067,5.839,21.693-3.143,20.974-12.144
					C182.89,294.298,182.423,296.331,181.534,298.139z"/>
				<g>
					<g>
						<g>
							<path style="fill:#222221;" d="M174.417,298.303c0.002-0.142,0.019-0.283,0.033-0.424c0.011-0.105,0.006-0.04-0.006,0.04
								c0.006-0.038,0.011-0.077,0.017-0.115c0.014-0.085,0.028-0.17,0.044-0.255c0.039-0.208,0.087-0.414,0.143-0.618
								c0.063-0.231,0.137-0.459,0.222-0.683c0.023-0.06,0.047-0.12,0.071-0.18c0.028-0.069-0.008,0.018-0.012,0.026
								c0.015-0.035,0.03-0.07,0.046-0.105c0.057-0.125,0.116-0.249,0.18-0.371c0.301-0.579,0.591-0.984,1.018-1.417
								c0.551-0.557,1.192-0.983,1.95-1.281c0.329-0.13,0.558-0.439,0.457-0.806c-0.086-0.313-0.475-0.588-0.806-0.457
								c-1.495,0.589-2.751,1.588-3.573,2.979c-0.525,0.889-0.872,1.897-1.017,2.919c-0.035,0.247-0.072,0.498-0.076,0.747
								C173.094,299.146,174.404,299.147,174.417,298.303L174.417,298.303z"/>
						</g>
					</g>
					<g>
						<g>
							<path style="fill:#222221;" d="M174.543,295.683c0.082,0.019,0.162,0.046,0.241,0.075c0.039,0.014,0.077,0.03,0.115,0.045
								c0.084,0.032-0.184-0.082-0.07-0.029c0.024,0.011,0.049,0.022,0.074,0.034c0.112,0.052,0.221,0.111,0.326,0.175
								c0.052,0.031,0.103,0.064,0.154,0.099c0.03,0.02,0.06,0.041,0.09,0.063c0.015,0.011,0.03,0.022,0.045,0.033
								c0.082,0.059-0.111-0.091-0.053-0.041c0.12,0.103,0.238,0.205,0.347,0.321c0.056,0.06,0.107,0.124,0.161,0.186
								c0.052,0.06-0.085-0.119-0.04-0.052c0.013,0.019,0.027,0.037,0.04,0.055c0.03,0.043,0.06,0.086,0.088,0.131
								c0.046,0.071,0.088,0.145,0.128,0.22c0.023,0.044,0.046,0.089,0.067,0.135c0.009,0.019,0.019,0.055,0.032,0.07
								c-0.031-0.036-0.052-0.132-0.013-0.03c0.087,0.233,0.155,0.471,0.197,0.717c0.004,0.025,0.017,0.068,0.014,0.091
								c0.009-0.069-0.013-0.109-0.003-0.01c0.007,0.073,0.014,0.147,0.018,0.22c0.009,0.157,0.008,0.315,0.002,0.472
								c-0.012,0.343,0.31,0.67,0.655,0.655c0.365-0.016,0.641-0.288,0.655-0.655c0.04-1.088-0.248-2.139-0.945-2.985
								c-0.43-0.522-1.011-0.896-1.634-1.144c-0.111-0.044-0.224-0.087-0.34-0.113c-0.333-0.076-0.725,0.102-0.806,0.457
								C174.01,295.211,174.186,295.602,174.543,295.683L174.543,295.683z"/>
						</g>
					</g>
				</g>
			</g>
			<g>
				<path style="fill:#E9A585;" d="M126.719,291.693c0,0-11.417-14.156-16.744-4.11c-5.328,10.046,5.48,23.594,19.636,16.744
					L126.719,291.693z"/>
				<path style="fill:#CF866B;" d="M110.373,298.139c1.035,2.104,2.925,3.772,5.243,4.125c5.964,0.911,9.315-6.853,8.15-13.679
					c1.773,1.648,2.952,3.107,2.952,3.107l2.892,12.634c-12.067,5.839-21.692-3.143-20.974-12.144
					C109.017,294.298,109.484,296.331,110.373,298.139z"/>
				<g>
					<g>
						<g>
							<path style="fill:#222221;" d="M118.8,298.303c-0.029-1.867-0.906-3.839-2.238-5.127c-0.7-0.676-1.527-1.164-2.428-1.519
								c-0.329-0.13-0.719,0.142-0.806,0.457c-0.102,0.372,0.127,0.675,0.457,0.806c0.657,0.259,1.26,0.636,1.746,1.085
								c0.49,0.452,0.78,0.824,1.106,1.4c0.065,0.114,0.126,0.23,0.184,0.347c0.03,0.061,0.06,0.123,0.088,0.186
								c0.019,0.041,0.096,0.224,0.048,0.105c0.094,0.23,0.177,0.464,0.249,0.701c0.115,0.383,0.178,0.769,0.255,1.16
								c-0.038-0.192-0.002-0.016,0.007,0.081c0.006,0.056,0.011,0.113,0.014,0.169c0.003,0.049,0.007,0.099,0.007,0.149
								C117.503,299.145,118.813,299.148,118.8,298.303L118.8,298.303z"/>
						</g>
					</g>
					<g>
						<g>
							<path style="fill:#222221;" d="M117.016,294.42c-0.365,0.083-0.727,0.26-1.042,0.457c-0.736,0.46-1.274,1.123-1.595,1.927
								c-0.233,0.583-0.305,1.234-0.282,1.858c0.012,0.342,0.292,0.671,0.655,0.655c0.344-0.015,0.668-0.288,0.655-0.655
								c-0.005-0.132-0.006-0.264-0.001-0.397c0.002-0.067,0.007-0.133,0.012-0.199c0.002-0.024,0.004-0.048,0.007-0.073
								c0.006-0.064-0.017-0.159,0-0.014c-0.011-0.093,0.037-0.22,0.058-0.311c0.027-0.117,0.059-0.233,0.098-0.346
								c0.015-0.045,0.031-0.089,0.048-0.133c0.063-0.164-0.038,0.073,0.01-0.024c0.044-0.09,0.087-0.179,0.137-0.266
								c0.044-0.077,0.092-0.152,0.143-0.225c0.014-0.02,0.116-0.156,0.04-0.058c-0.073,0.094,0.033-0.039,0.054-0.063
								c0.105-0.123,0.22-0.237,0.343-0.342c0.026-0.022,0.053-0.043,0.079-0.066c0.064-0.056-0.139,0.101-0.02,0.015
								c0.059-0.042,0.118-0.084,0.179-0.124c0.108-0.07,0.221-0.134,0.336-0.192c0.044-0.022,0.088-0.042,0.133-0.063
								c0.012-0.005,0.024-0.01,0.036-0.016c0.076-0.037-0.12,0.049-0.105,0.044c0.024-0.009,0.048-0.02,0.073-0.029
								c0.098-0.038,0.198-0.074,0.3-0.098c0.334-0.076,0.563-0.48,0.457-0.806C117.708,294.527,117.374,294.339,117.016,294.42
								L117.016,294.42z"/>
						</g>
					</g>
				</g>
			</g>
			<path style="fill:#E9A585;" d="M119.659,264.421c0,0-3.027,41.597,5.023,50.793c9.894,11.303,36.533,8.728,43.535,0
				c4.796-5.978,6.85-31.191,1.522-50.793C169.739,264.421,146.906,242.1,119.659,264.421z"/>
			<ellipse style="fill:#222221;" cx="155.719" cy="290.809" rx="2.449" ry="3.236"/>
			<ellipse style="fill:#222221;" cx="134.538" cy="290.809" rx="2.449" ry="3.236"/>
			<g>
				<g>
					<path style="fill:#222221;" d="M144.001,297.818c-0.558-0.262-1.209-0.651-1.53-1.193c-0.358-0.605,0.325-1.263,0.671-1.73
						c0.568-0.767,1.082-1.551,1.448-2.436c0.521-1.259,0.693-2.619,0.648-3.975c-0.026-0.776-1.235-0.779-1.209,0
						c0.047,1.384-0.146,2.764-0.775,4.01c-0.419,0.829-0.998,1.541-1.526,2.299c-0.576,0.827-0.823,1.713-0.194,2.601
						c0.45,0.636,1.155,1.139,1.857,1.469C144.091,299.191,144.705,298.149,144.001,297.818L144.001,297.818z"/>
				</g>
			</g>
			<path style="fill:#D46A55;" d="M154.806,301.336c0,2.679,2.945,4.85,6.578,4.85c3.633,0,6.578-2.172,6.578-4.85
				s-2.945-4.85-6.578-4.85C157.751,296.486,154.806,298.658,154.806,301.336z"/>
			<path style="fill:#D46A55;" d="M123.188,301.336c0,2.679,2.945,4.85,6.578,4.85s6.578-2.172,6.578-4.85s-2.945-4.85-6.578-4.85
				S123.188,298.658,123.188,301.336z"/>
			<path style="fill:#222221;" d="M150.48,280.778c-0.185,1.542,1.773,0.908,4.667,1.254c2.894,0.346,5.628,1.543,5.813,0
				c0.185-1.543-2.012-3.074-4.906-3.42C153.16,278.266,150.665,279.235,150.48,280.778z"/>
			<path style="fill:#222221;" d="M138.337,279.992c0.185,1.543-1.773,0.908-4.667,1.254c-2.894,0.346-5.628,1.543-5.813,0
				c-0.185-1.543,2.012-3.074,4.906-3.42C135.657,277.48,138.152,278.45,138.337,279.992z"/>
			<g>
				<g>
					<path style="fill:#222221;" d="M138.217,302.216c0.195,2.202,1.394,4.523,3.384,5.587c1.642,0.879,3.785,0.969,5.507,0.27
						c1.449-0.588,2.557-1.75,3.206-3.161c0.389-0.846,0.674-1.764,0.755-2.696c0.072-0.827-1.219-0.822-1.29,0
						c-0.004,0.042-0.009,0.085-0.014,0.127c0.035-0.261-0.036,0.199-0.052,0.28c-0.082,0.416-0.198,0.826-0.343,1.223
						c-0.402,1.098-1.108,2.121-2.123,2.729c-1.352,0.809-3.23,0.891-4.672,0.272c-1.176-0.505-2.016-1.515-2.521-2.668
						c-0.202-0.462-0.349-0.952-0.455-1.445c-0.034-0.155-0.06-0.311-0.086-0.468c0.001,0.009,0.009,0.108-0.005-0.049
						C139.435,301.396,138.144,301.388,138.217,302.216L138.217,302.216z"/>
				</g>
			</g>
			<path style="fill:#FFFFFF;" d="M127.402,353.802c0,0,5.303-20.524,29.755-15.319c24.452,5.205,27.496,29.067,11.588,32.799
				c-15.908,3.732-50.181-8.445-50.181-8.445L127.402,353.802z"/>
			<path style="fill:#FFFFFF;" d="M101.421,344.533c0,0-7.959-6.003-4.591-14.804c0,0,9.974-1.967,14.182,5.978L101.421,344.533z"/>
			<path style="fill:#FFFFFF;" d="M129.918,344.564c0,0,7.758-6.261,4.103-14.947c0,0-10.033-1.639-13.978,6.44L129.918,344.564z"/>
			<path style="fill:#FFFFFF;" d="M116.486,332.588c0,0,14.276-0.23,16.324,14.328c2.449,17.412-11.34,16.891-18.051,16.347
				s-16.5-0.93-14.868-15.893C101.523,332.407,115.05,332.104,116.486,332.588z"/>
			<ellipse style="fill:#222221;" cx="109.041" cy="349.14" rx="1.882" ry="2.011"/>
			<ellipse style="fill:#222221;" cx="123.271" cy="349.14" rx="1.882" ry="2.011"/>
			<path style="fill:#D46A55;" d="M114.404,350.475c0,0.332,0.785,1.315,1.753,1.315c0.968,0,1.753-0.983,1.753-1.315
				c0-0.332-0.785-0.6-1.753-0.6C115.188,349.874,114.404,350.143,114.404,350.475z"/>
			<path style="fill:#E9A585;" d="M177.442,353.465l-6.475,17.111l-50.761-7.158l-1.903,7.799c0,0,46.219,22.258,60.282,18.722
				c12.688-3.189,12.764-29.314,12.764-35.008"/>
			<path style="fill:#FFFFFF;" d="M120.921,362.64c0,0-5.63,8.642-0.393,14.272c5.237,5.63,9.558-0.72,7.791-4.255
				c-1.768-3.535,6.285-9.206,6.285-9.206S131.33,355.832,120.921,362.64z"/>
			<path style="fill:#7A5FA0;" d="M167.962,275.438c0,0-2.458,17.792,2.059,16.85c4.517-0.942,8.564-7.984,8.564-7.984
				s4.202,0.87,3.809-4.195c0,0-1.277-1.944-3.633-2.13c0,0,11.202-22.87-10.799-28.271c0,0,1.077-7.201-5.994-0.917
				c0,0-2.881-8.159-5.761-2.574c0,0-25.519-7.999-38.062,7.222s-0.53,26.22-0.53,26.22s-3.83,2.093-2.521,4.32l4.255,1.474
				c0,0,1.702,6.612,2.75,6.35c1.048-0.262,2.16-17.48,2.16-17.48s16.301,4.157,24.747-15.188c0,0-1.866,8.838,7.856,3.044
				C156.862,262.181,168.653,258.155,167.962,275.438z"/>
			<path style="fill:#DD4D61;" d="M165.028,341.091c0,0,5.347-4.244,16.018-1.822C191.717,341.691,193,365.652,193,365.652
				l-19.337-2.201c0,0,6.497-14.289-8.198-22.15L165.028,341.091z"/>
			<path style="fill:#E3E3E3;" d="M153.554,368.121c0,0-4.589-5.491,4.073-12.998c0,0-6.212,8.328-2.285,13.25L153.554,368.121z"/>
			<g>
				<path style="fill:#FFFFFF;" d="M157.627,355.123c6.694,1.173,14.64,0.803,20.568-2.763c4.9-2.947,7.407-8.052,7.676-13.668
					c0.283-5.927,0.754-12.595,5.326-16.98c1.558-1.494,3.2-2.249,5.269-2.038c0.515,0.052,1.592,0.423,2.364,0.891
					c0.924,0.559,1.865,1.481,2.591,2.461c1.97,2.662,6.444,0.008,4.449-2.687c-3.076-4.155-7.882-7.047-13.16-5.429
					c-5.553,1.703-8.903,7.13-10.533,12.387c-1.108,3.574-1.372,7.265-1.489,10.981c-0.078,2.491-0.709,5.111-2.216,7.049
					c-2.62,3.368-7.136,4.621-11.09,4.977c-2.065,0.186-4.148,0.185-6.216,0.033c-0.388-0.028-0.774-0.066-1.161-0.102
					c-0.612-0.057-0.654-0.081-0.341-0.035c-0.243-0.036-0.487-0.066-0.73-0.109C155.658,349.518,154.331,354.545,157.627,355.123
					L157.627,355.123z"/>
			</g>
			<path style="fill:#BC6F63;" d="M179.284,337.421c0.172-0.464,0.277-1.013,0.283-1.686c0.001-0.057,0.023-0.12,0-0.172
				c-7.477-17.762-24.885-8.513-27.004-3.573c-3.367,7.85-0.779,17.248,2.917,16.346c1.326-0.323,1.806-1.305,1.949-2.533
				c0.066,0.344,0.12,0.68,0.216,1.044c0.181,0.689,0.682,1.254,1.354,1.49c1.01,0.355,2.502,0.683,3.31-0.08
				c0.472-0.446,0.458-1.431,0.355-2.628c0.061,0.249,0.129,0.503,0.21,0.766c0.46,1.49,1.999,2.434,3.517,2.076
				c0.785-0.185,1.432-0.57,1.407-1.339c-0.063-1.917,0.323-8.215,2.614-8.201c0.006,0,0.011,0,0.017,0
				c1.285,0.015,2.405,0.889,2.842,2.097c0.718,1.983,2.108,4.864,4.092,4.735C179.316,345.636,180.021,341.143,179.284,337.421z
				 M157.357,340.571c0.048-0.548,0.157-1.04,0.39-1.424C157.747,339.147,157.533,339.668,157.357,340.571z M162.604,340.968
				c0.122-0.597,0.339-1.15,0.681-1.633C163.114,339.606,162.82,340.15,162.604,340.968z"/>
			<g>
				<g>
					<g>
						<path style="fill:#222221;" d="M157.815,345.995c-0.093-1.087-0.092-2.192-0.029-3.281c0.05-0.875,0.15-1.749,0.369-2.599
							c0.182-0.706,0.44-1.444,0.98-1.954c0.526-0.497-0.269-1.29-0.794-0.794c-1.307,1.236-1.541,3.387-1.661,5.078
							c-0.083,1.177-0.089,2.373,0.012,3.55C156.753,346.71,157.876,346.716,157.815,345.995L157.815,345.995z"/>
					</g>
				</g>
				<g>
					<g>
						<path style="fill:#222221;" d="M163.189,346.302c-0.226-0.939-0.307-1.779-0.313-2.774c-0.01-1.423,0.2-3.221,1.451-4.125
							c0.58-0.419,0.02-1.394-0.567-0.969c-2.259,1.633-2.2,4.902-1.804,7.378c0.042,0.264,0.088,0.528,0.151,0.788
							C162.275,347.303,163.358,347.005,163.189,346.302L163.189,346.302z"/>
					</g>
				</g>
			</g>
		</g>
		<path style="fill:#BC6F63;" d="M263.482,397.741c0,0-5.862-1.25-8.226,4.314c-2.363,5.564-8.61,7.439-8.477,10.441
			c0.11,2.481,4.191,1.536,6.727-0.351c1.857-1.381,3.169-4.011,3.419-3.451c0.25,0.56,1.106,4.253,0.549,6.302
			c-0.633,2.328-4.763,13.702-4.938,14.23c-0.005,0.014-0.009,0.029-0.014,0.043c-0.638,2.068,2.107,3.521,3.586,1.941
			c1.495-1.596,2.686-4.438,3.232-5.73c1.316-3.115,3.114-8.443,3.114-8.443l0.509,0.073c0,0-0.247,18.156-0.25,19.098
			c-0.004,1.601,1.07,2.078,1.543,2.106c0.721,0.043,1.784-0.44,2.261-2.46c0.721-3.051,2.692-13.888,2.535-18.275
			c0,0,0.656,9.689,0.277,14.092c-0.116,1.349,0.537,3.343,2.032,2.911c1.705-0.493,1.957-3.614,1.925-4.093
			c-0.22-3.27-0.058-10.6-0.07-14.23l0.533-0.367c0,0-0.518,9.077,1.283,11.068c0.174,0.192,1.109,1.321,1.998,0.614
			c0.5-0.398,0.353-2.275,0.366-2.635c0.076-2.156-0.199-13.451-0.298-14.62c-0.232-2.746-6.512-16.304-9.742-19.289
			C262.762,386.788,263.482,397.741,263.482,397.741z"/>
		<path style="fill:#69BA9F;" d="M20.756,320.697c0,0-10.871-39.112,14.794-49.158l16.434,37.876
			C51.984,309.416,44.521,328.051,20.756,320.697z"/>
		<path style="fill:#222221;" d="M51.359,215.08c0,0,14.311-7.013,21.402-31.563c0,0,4.341,9.236,21.428,8.644l-10.256-12.572
			c0,0,10.452,14.041,25.968,15.564c0,0-3.068-31.667-28.42-28.527C56.129,169.767,43.333,200.002,51.359,215.08z"/>
		<path style="fill:none;stroke:#222221;stroke-width:1.3857;stroke-miterlimit:10;" d="M73.882,182.077
			c0,0,2.56,15.209-21.898,31.699"/>
		<path style="fill:#271E6D;" d="M183.225,188.493c0,0,12.22,6.547,25.292-12.308c0,0-6.211,10.048-14.162,13.408
			c0,0,19.094,0.471,23.95-16.026c0,0,18.735,6.368,20.568,23.937c1.833,17.569-0.262,27.208-0.262,27.208l7.996-27.049
			c1.744-5.898,0.296-12.294-3.877-16.812c-6.943-7.516-19.624-17.125-38.293-15.664
			C174.321,167.543,183.225,188.493,183.225,188.493z"/>
		<path style="fill:#222221;" d="M70.618,211.441c-0.415,0.389-1.067-0.092-0.824-0.606c0.944-1.989,2.516-4.216,4.708-3.755
			c2.081,0.438,3.052,2.72,3.506,4.712c0.131,0.574-0.616,0.893-0.945,0.405C75.795,210.312,73.636,208.611,70.618,211.441z"/>
		<path style="fill:#222221;" d="M100.366,211.441c0.415,0.389,1.068-0.092,0.824-0.606c-0.944-1.989-2.516-4.216-4.708-3.755
			c-2.081,0.438-3.052,2.72-3.506,4.712c-0.131,0.574,0.616,0.893,0.945,0.405C95.189,210.312,97.348,208.611,100.366,211.441z"/>
	</g>
	<g>
		<g>
			<path style="fill:#274256;" d="M336.472,446.111v-24.017h4.941l-0.467,24.017h33.725l3.476-66.073l-93.015-3.867
				c-3.072,16.649-0.931,50.136,2.265,69.94H336.472z"/>
			<path style="fill:#487FD2;" d="M378.994,369.941V266.543l-10.357-3.236l-0.149-0.047c-29.956,20.971-54.112,0.758-54.96,0.034
				c-0.015-0.013-0.04-0.034-0.04-0.034l-6.122,1.278l-16.081,43.25l-9.733,67.022c0,0,8.879,19.763,45.456,21.768
				c36.577,2.005,53.935-12.889,53.935-12.889L378.994,369.941z"/>
			<path style="fill:#3B699F;" d="M378.994,343.369c-5.671,3.51-11.605,6.583-18.392,8.092
				c-26.195,5.915-52.389-2.451-73.154-17.254l-5.897,40.603c0,0,8.879,19.763,45.456,21.768
				c36.577,2.005,53.935-12.889,53.935-12.889l-1.949-13.748V343.369z"/>
		</g>
		<path style="fill:#E9A585;" d="M485.614,139.655l-5.426-15.198c-11.341-17.317,9.655-25.598,14.044-17.37
			c5.302,9.941,1.202,13.102,1.202,13.102l6.6,14.179L485.614,139.655z"/>
		<path style="fill:#271E6D;" d="M412.41,78.543c0,0,23.415-1.289,28.356,24.274c0,0,12.459,14.5,7.626,20.945
			s-9.097,6.239-9.097,6.239l0.548-5.632l-2.912,5.633c0,0-27.206,8.475-46.539-2.158v-5.048l-1.396,4.404
			c0,0-5.585,0.642-6.659-6.768c-1.074-7.41,6.659-10.386,7.948-23.398C391.573,84.021,401.347,77.254,412.41,78.543z"/>
		<path style="fill:#BB334C;" d="M400.822,134.372c0,0,10.297,7.066,31.135,0l2.257,4.779c0,0-15.646,21.345-35.856-0.351
			L400.822,134.372z"/>
		<g>
			<path style="fill:#E8AF8E;" d="M431.074,108.452c0,0,6.297-7.808,9.235-2.267c2.939,5.541-3.022,13.013-10.83,9.235
				L431.074,108.452z"/>
			<path style="fill:#CF866B;" d="M440.089,112.008c-0.571,1.16-1.613,2.08-2.892,2.275c-3.289,0.502-5.138-3.78-4.495-7.544
				c-0.978,0.909-1.628,1.714-1.628,1.714l-1.595,6.968c6.656,3.22,11.964-1.733,11.568-6.698
				C440.837,109.889,440.58,111.01,440.089,112.008z"/>
			<g>
				<g>
					<g>
						<path style="fill:#222221;" d="M436.164,112.098c0.001-0.078,0.01-0.156,0.018-0.234c0.006-0.058,0.004-0.022-0.004,0.022
							c0.003-0.021,0.006-0.042,0.009-0.063c0.007-0.047,0.015-0.094,0.024-0.141c0.022-0.115,0.048-0.229,0.079-0.341
							c0.035-0.127,0.076-0.253,0.122-0.377c0.013-0.033,0.026-0.066,0.039-0.099c0.015-0.038-0.004,0.01-0.006,0.015
							c0.008-0.019,0.017-0.039,0.025-0.058c0.031-0.069,0.064-0.138,0.099-0.205c0.166-0.32,0.326-0.543,0.562-0.782
							c0.304-0.308,0.657-0.542,1.076-0.707c0.181-0.071,0.308-0.242,0.252-0.444c-0.047-0.173-0.262-0.324-0.444-0.252
							c-0.825,0.325-1.517,0.876-1.971,1.643c-0.29,0.49-0.481,1.047-0.561,1.61c-0.019,0.136-0.04,0.274-0.042,0.412
							C435.435,112.563,436.157,112.563,436.164,112.098L436.164,112.098z"/>
					</g>
				</g>
				<g>
					<g>
						<path style="fill:#222221;" d="M436.234,110.653c0.045,0.01,0.09,0.025,0.133,0.041c0.021,0.008,0.042,0.017,0.064,0.025
							c0.046,0.017-0.102-0.046-0.039-0.016c0.013,0.006,0.027,0.012,0.041,0.018c0.062,0.029,0.122,0.061,0.18,0.096
							c0.029,0.017,0.057,0.036,0.085,0.054c0.017,0.011,0.033,0.023,0.049,0.035c0.008,0.006,0.016,0.012,0.025,0.018
							c0.045,0.032-0.061-0.05-0.029-0.023c0.066,0.057,0.132,0.113,0.191,0.177c0.031,0.033,0.059,0.069,0.088,0.103
							c0.029,0.033-0.047-0.065-0.022-0.029c0.007,0.01,0.015,0.02,0.022,0.031c0.017,0.024,0.033,0.048,0.049,0.072
							c0.025,0.039,0.049,0.08,0.07,0.121c0.013,0.025,0.025,0.049,0.037,0.074c0.005,0.01,0.011,0.031,0.018,0.039
							c-0.017-0.02-0.029-0.073-0.007-0.016c0.048,0.129,0.086,0.26,0.108,0.395c0.002,0.014,0.009,0.038,0.008,0.05
							c0.005-0.038-0.007-0.06-0.002-0.005c0.004,0.04,0.008,0.081,0.01,0.122c0.005,0.087,0.005,0.174,0.001,0.261
							c-0.007,0.189,0.171,0.37,0.361,0.361c0.202-0.009,0.354-0.159,0.361-0.361c0.022-0.6-0.137-1.18-0.521-1.646
							c-0.237-0.288-0.558-0.494-0.901-0.631c-0.061-0.024-0.124-0.048-0.188-0.062c-0.184-0.042-0.4,0.056-0.444,0.252
							C435.94,110.392,436.037,110.608,436.234,110.653L436.234,110.653z"/>
					</g>
				</g>
			</g>
		</g>
		<path style="fill:#E8AF8E;" d="M425.385,121.829l0.535,11.869c0.074,1.646,4.989,0.177,6.253,1.234l4.355,0.626
			c0,0-13.314,20.823-23.125,20.913c-4.807,0.044-8.042-9.738-12.902-13.561l0.322-8.538c1.993-0.155,6.797,0.901,6.704-0.844
			l-0.397-7.461L425.385,121.829z"/>
		<path style="fill:#A8624B;" d="M425.587,126.321l-0.203-4.492l-18.255,4.238l0.366,6.886
			C409.38,134.433,420.889,140.628,425.587,126.321z"/>
		<path style="fill:#E8AF8E;" d="M408.736,79.418c0,0-19.059,5.278-12.675,27.605c0.259,0.906,0.259,1.861,0.042,2.779
			c-0.896,3.788-3.197,15.351,14.921,20.04c0.693,0.179,1.417,0.205,2.123,0.09c4.588-0.747,21.376-4.905,21.992-25.844
			C435.852,79.826,408.736,79.418,408.736,79.418z"/>
		<path style="fill:#222221;" d="M417.65,106.451c0,1.244,0.763,2.252,1.704,2.252c0.941,0,1.704-1.008,1.704-2.252
			s-0.763-2.252-1.704-2.252C418.413,104.199,417.65,105.207,417.65,106.451z"/>
		<path style="fill:#222221;" d="M403.394,106.739c0,1.244,0.763,2.252,1.704,2.252s1.704-1.008,1.704-2.252
			c0-1.244-0.763-2.252-1.704-2.252S403.394,105.495,403.394,106.739z"/>
		<g>
			<g>
				<path style="fill:#222221;" d="M411.693,112.422c-0.34-0.159-0.736-0.397-0.931-0.726c-0.218-0.368,0.198-0.769,0.408-1.053
					c0.346-0.467,0.659-0.944,0.882-1.483c0.317-0.767,0.422-1.595,0.394-2.42c-0.016-0.472-0.752-0.475-0.736,0
					c0.028,0.842-0.089,1.683-0.472,2.441c-0.255,0.505-0.608,0.938-0.929,1.4c-0.35,0.504-0.501,1.043-0.118,1.584
					c0.274,0.387,0.703,0.694,1.131,0.894C411.748,113.257,412.122,112.623,411.693,112.422L411.693,112.422z"/>
			</g>
		</g>
		<path style="fill:#D46A55;" d="M417.393,114.533c0,1.864,2.049,3.375,4.577,3.375c2.528,0,4.577-1.511,4.577-3.375
			c0-1.864-2.049-3.375-4.577-3.375C419.443,111.158,417.393,112.669,417.393,114.533z"/>
		<path style="fill:#D46A55;" d="M397.894,114.676c0,1.864,2.049,3.375,4.577,3.375c2.528,0,4.577-1.511,4.577-3.375
			c0-1.864-2.049-3.375-4.577-3.375C399.943,111.3,397.894,112.812,397.894,114.676z"/>
		<g>
			<g>
				<path style="fill:#222221;" d="M417.634,115.993c-1.082,1.629-2.655,2.838-4.654,2.971c-2.004,0.133-4.03-0.503-5.535-1.845
					c-0.537-0.479-1.333,0.312-0.793,0.793c1.749,1.559,4.12,2.362,6.461,2.163c2.361-0.2,4.203-1.579,5.489-3.516
					C419.003,115.955,418.032,115.394,417.634,115.993L417.634,115.993z"/>
			</g>
		</g>
		<path style="fill:#222221;" d="M416.398,99.326c-0.128,1.073,1.234,0.632,3.248,0.873c2.014,0.241,3.916,1.074,4.045,0
			c0.129-1.073-1.4-2.139-3.414-2.38C418.263,97.578,416.526,98.253,416.398,99.326z"/>
		<path style="fill:#222221;" d="M407.04,100.071c0.129,1.073-1.234,0.632-3.248,0.873c-2.014,0.241-3.916,1.074-4.045,0
			c-0.129-1.073,1.4-2.139,3.414-2.38C405.175,98.323,406.912,98.997,407.04,100.071z"/>
		<path style="fill:#CF866B;" d="M409.989,124.683c0,0.482,0.764,0.872,1.707,0.872c0.943,0,1.707-0.39,1.707-0.872
			s-0.764-0.265-1.707-0.265C410.753,124.417,409.989,124.201,409.989,124.683z"/>
		<path style="fill:#DD4D61;" d="M472.913,116.327c-14.002,19.477-40.956,18.044-40.956,18.044
			c-0.624,4.456-2.967,7.448-5.672,9.448c-5.75,4.253-13.737,4.239-19.565,0.094c-2.813-2-5.265-5.015-5.898-9.542
			c0,0-20.05,3.881-34.052-15.596l-9.309,5.272c0,0,9.647,48.65,60.246,37.401l-0.015-0.319
			c50.111,10.727,63.824-38.502,63.824-38.502L472.913,116.327z"/>
		<path style="fill:#DD4D61;" d="M446.86,150.829l13.975,70.416c0,0-21.751,21.702-77.398-0.387l7.09-68.883
			C390.527,151.975,422.757,155.197,446.86,150.829z"/>
		<path style="fill:#211E1D;" d="M427.991,446.111h41.576c2.61-22.598,3.215-61.055-4.279-83.93h-49.306v54.049h9.533
			L427.991,446.111z"/>
		<path style="fill:#211E1D;" d="M419.471,446.111l2.477-29.881h9.533v-54.049h-49.306c-7.494,22.875-6.889,61.332-4.279,83.93
			H419.471z"/>
		<path style="fill:#271E6D;" d="M367.067,179.736c0,2.857,2.316,5.174,5.174,5.174s5.174-2.316,5.174-5.174
			c0-2.857-2.316-5.174-5.174-5.174S367.067,176.878,367.067,179.736z"/>
		<path style="fill:#271E6D;" d="M370.595,209.251c0,2.857,2.316,5.174,5.174,5.174c2.857,0,5.174-2.316,5.174-5.174
			c0-2.857-2.316-5.174-5.174-5.174C372.911,204.077,370.595,206.394,370.595,209.251z"/>
		<g>
			<path style="fill:#E9A585;" d="M439.372,193.865c0,0,11.229-13.924,16.469-4.042c5.24,9.881-5.39,23.206-19.313,16.469
				L439.372,193.865z"/>
			<path style="fill:#CF866B;" d="M455.449,200.205c-1.018,2.069-2.877,3.71-5.157,4.058c-5.866,0.896-9.162-6.74-8.016-13.454
				c-1.744,1.621-2.904,3.056-2.904,3.056l-2.845,12.426c11.869,5.743,21.336-3.091,20.629-11.944
				C456.783,196.427,456.324,198.427,455.449,200.205z"/>
			<g>
				<g>
					<g>
						<path style="fill:#222221;" d="M448.449,200.367c0.002-0.139,0.018-0.278,0.033-0.417c0.011-0.104,0.006-0.04-0.006,0.039
							c0.006-0.037,0.01-0.075,0.016-0.113c0.013-0.084,0.027-0.167,0.043-0.25c0.038-0.204,0.085-0.407,0.14-0.608
							c0.062-0.227,0.135-0.452,0.218-0.672c0.022-0.059,0.046-0.118,0.069-0.177c0.027-0.068-0.008,0.018-0.011,0.026
							c0.015-0.035,0.03-0.069,0.045-0.103c0.056-0.123,0.114-0.245,0.177-0.365c0.297-0.57,0.582-0.968,1.002-1.394
							c0.542-0.548,1.172-0.967,1.918-1.26c0.323-0.127,0.549-0.431,0.45-0.792c-0.085-0.308-0.467-0.578-0.792-0.45
							c-1.47,0.579-2.706,1.562-3.514,2.93c-0.517,0.874-0.858,1.866-1,2.871c-0.034,0.243-0.071,0.49-0.075,0.735
							C447.148,201.196,448.437,201.196,448.449,200.367L448.449,200.367z"/>
					</g>
				</g>
				<g>
					<g>
						<path style="fill:#222221;" d="M448.573,197.79c0.081,0.018,0.16,0.046,0.237,0.074c0.038,0.014,0.076,0.03,0.114,0.044
							c0.082,0.031-0.181-0.081-0.069-0.029c0.024,0.011,0.048,0.022,0.072,0.033c0.11,0.052,0.217,0.109,0.321,0.172
							c0.051,0.031,0.102,0.063,0.151,0.097c0.03,0.02,0.059,0.041,0.088,0.062c0.015,0.011,0.029,0.022,0.044,0.033
							c0.081,0.058-0.11-0.09-0.053-0.04c0.118,0.102,0.235,0.201,0.341,0.316c0.055,0.059,0.105,0.122,0.158,0.183
							c0.051,0.059-0.083-0.117-0.04-0.051c0.012,0.019,0.027,0.036,0.04,0.055c0.03,0.042,0.059,0.085,0.087,0.129
							c0.045,0.07,0.087,0.142,0.126,0.216c0.023,0.044,0.045,0.088,0.066,0.132c0.009,0.019,0.019,0.055,0.031,0.069
							c-0.031-0.036-0.051-0.13-0.013-0.029c0.086,0.23,0.153,0.463,0.194,0.705c0.004,0.025,0.017,0.067,0.014,0.09
							c0.009-0.067-0.012-0.107-0.003-0.009c0.007,0.072,0.013,0.144,0.017,0.217c0.008,0.155,0.008,0.31,0.002,0.465
							c-0.012,0.337,0.305,0.659,0.644,0.644c0.359-0.016,0.631-0.283,0.644-0.644c0.039-1.07-0.244-2.104-0.929-2.936
							c-0.423-0.514-0.994-0.882-1.608-1.126c-0.109-0.043-0.22-0.085-0.335-0.111c-0.328-0.074-0.713,0.1-0.792,0.45
							C448.049,197.325,448.222,197.71,448.573,197.79L448.573,197.79z"/>
					</g>
				</g>
			</g>
		</g>
		<g>
			<path style="fill:#E9A585;" d="M401.536,193.865c0,0-11.229-13.924-16.469-4.042c-5.24,9.881,5.39,23.206,19.313,16.469
				L401.536,193.865z"/>
			<path style="fill:#CF866B;" d="M385.459,200.205c1.018,2.069,2.877,3.71,5.157,4.058c5.866,0.896,9.162-6.74,8.016-13.454
				c1.744,1.621,2.904,3.056,2.904,3.056l2.845,12.426c-11.869,5.743-21.336-3.091-20.629-11.944
				C384.125,196.427,384.584,198.427,385.459,200.205z"/>
			<g>
				<g>
					<g>
						<path style="fill:#222221;" d="M393.747,200.367c-0.028-1.836-0.891-3.776-2.201-5.042c-0.688-0.665-1.502-1.145-2.388-1.494
							c-0.324-0.128-0.707,0.14-0.792,0.45c-0.1,0.366,0.125,0.664,0.45,0.792c0.646,0.255,1.239,0.626,1.718,1.067
							c0.482,0.445,0.767,0.811,1.088,1.377c0.064,0.112,0.124,0.226,0.181,0.341c0.03,0.06,0.059,0.121,0.087,0.183
							c0.018,0.04,0.095,0.221,0.047,0.104c0.092,0.226,0.174,0.456,0.245,0.69c0.113,0.377,0.175,0.757,0.251,1.141
							c-0.037-0.188-0.002-0.016,0.007,0.08c0.005,0.055,0.01,0.111,0.014,0.166c0.003,0.049,0.007,0.098,0.007,0.146
							C392.472,201.195,393.76,201.197,393.747,200.367L393.747,200.367z"/>
					</g>
				</g>
				<g>
					<g>
						<path style="fill:#222221;" d="M391.992,196.548c-0.359,0.081-0.715,0.256-1.025,0.45c-0.724,0.452-1.253,1.105-1.569,1.895
							c-0.229,0.573-0.3,1.214-0.277,1.827c0.012,0.336,0.288,0.66,0.644,0.644c0.338-0.015,0.657-0.283,0.644-0.644
							c-0.005-0.13-0.006-0.26-0.001-0.39c0.003-0.065,0.006-0.131,0.012-0.196c0.002-0.024,0.004-0.048,0.006-0.072
							c0.006-0.063-0.017-0.156,0-0.014c-0.011-0.091,0.036-0.216,0.057-0.306c0.026-0.115,0.058-0.229,0.096-0.34
							c0.015-0.044,0.031-0.088,0.047-0.131c0.062-0.161-0.037,0.072,0.01-0.023c0.043-0.088,0.085-0.176,0.134-0.262
							c0.044-0.076,0.09-0.15,0.14-0.222c0.013-0.019,0.115-0.153,0.039-0.057c-0.072,0.092,0.033-0.038,0.053-0.062
							c0.104-0.121,0.217-0.233,0.337-0.337c0.026-0.022,0.052-0.043,0.078-0.065c0.063-0.055-0.137,0.1-0.019,0.015
							c0.058-0.042,0.116-0.083,0.176-0.122c0.107-0.069,0.217-0.132,0.331-0.189c0.043-0.021,0.087-0.041,0.131-0.062
							c0.012-0.005,0.024-0.01,0.035-0.016c0.075-0.036-0.119,0.049-0.103,0.043c0.024-0.008,0.048-0.02,0.071-0.029
							c0.096-0.037,0.195-0.073,0.296-0.096c0.329-0.075,0.554-0.472,0.45-0.792C392.673,196.653,392.345,196.468,391.992,196.548
							L391.992,196.548z"/>
					</g>
				</g>
			</g>
		</g>
		<path style="fill:#E9A585;" d="M437.523,222.985v9.725c0,3.936,2.039,7.59,5.389,9.656l11.903,7.343
			c0,0,0.449,36.493-32.227,36.493s-32.563-36.269-32.563-36.269l11.08-7.516c3.113-2.111,4.977-5.628,4.977-9.39v-11.054
			L437.523,222.985z"/>
		<path style="fill:#A8624B;" d="M437.523,229.904v-6.919l-31.44-1.01v9.535C411.003,244.095,432.233,243.293,437.523,229.904z"/>
		<path style="fill:#E9A585;" d="M394.592,167.665c0,0-2.977,43.526,4.941,53.149c9.732,11.828,35.932,9.133,42.819,0
			c4.717-6.255,6.737-32.638,1.497-53.149C443.849,167.665,421.391,144.309,394.592,167.665z"/>
		<ellipse style="fill:#222221;" cx="430.083" cy="190.809" rx="2.409" ry="3.183"/>
		<path style="fill:#222221;" d="M406.841,190.809c0,1.758,1.078,3.183,2.409,3.183c1.33,0,2.409-1.425,2.409-3.183
			s-1.078-3.183-2.409-3.183C407.92,187.626,406.841,189.051,406.841,190.809z"/>
		<g>
			<g>
				<path style="fill:#222221;" d="M417.375,200.526c-0.646-0.303-1.398-0.753-1.769-1.38c-0.414-0.7,0.376-1.461,0.775-2.001
					c0.657-0.887,1.251-1.793,1.675-2.818c0.602-1.456,0.802-3.029,0.749-4.596c-0.03-0.897-1.428-0.901-1.398,0
					c0.054,1.6-0.169,3.196-0.897,4.637c-0.484,0.959-1.154,1.782-1.764,2.659c-0.666,0.956-0.951,1.981-0.225,3.008
					c0.521,0.736,1.336,1.318,2.147,1.698C417.479,202.113,418.19,200.908,417.375,200.526L417.375,200.526z"/>
			</g>
		</g>
		<ellipse style="fill:#D46A55;" cx="435.631" cy="203.35" rx="6.47" ry="4.771"/>
		<ellipse style="fill:#D46A55;" cx="404.533" cy="203.35" rx="6.47" ry="4.771"/>
		<path style="fill:#222221;" d="M426.37,179.564c-0.182,1.517,1.744,0.893,4.59,1.233c2.846,0.341,5.535,1.517,5.717,0
			c0.182-1.517-1.979-3.023-4.825-3.364C429.006,177.093,426.551,178.047,426.37,179.564z"/>
		<path style="fill:#222221;" d="M412.608,180.117c0.182,1.517-1.744,0.893-4.591,1.233c-2.846,0.341-5.535,1.517-5.717,0
			c-0.182-1.517,1.979-3.023,4.825-3.364C409.972,177.646,412.427,178.599,412.608,180.117z"/>
		<path style="fill:#CF866B;" d="M419.165,220.012c0,0.681,1.08,1.232,2.412,1.232c1.332,0,2.412-0.552,2.412-1.232
			s-1.08-0.375-2.412-0.375C420.245,219.637,419.165,219.331,419.165,220.012z"/>
		<path style="fill:#FFFFFF;" d="M418.345,209.475c0.945,0.853,2.434,0.731,3.241-0.254c1.33-1.622,3.347-3.301,5.245-1.783
			c3.028,2.423-1.104,8.544-6.871,8.9c-5.767,0.356-8.768-6.025-7.263-7.761C414.364,206.657,416.728,208.016,418.345,209.475z"/>
		<path style="fill:#7A5FA0;" d="M449.863,186.357c0,0-3.763,9.154-6.341,7.149c-2.578-2.005-0.788-18.116-0.788-18.116
			s0.358,5.327-2.864,4.346c-3.222-0.981-6.551-14.767-6.551-14.767s-21.977-6.273-28.939-0.392
			c-7.975,6.737-1.656,29.415-8.547,30.822c-2.976,0.608-1.782-7.773-1.782-7.773s-12.628-9.373-10.337-22.62
			c2.291-13.247,24.435-11.385,27.944-11.457c0,0-1.791-4.01,1.861-5.585c3.652-1.575,31.586,1.074,36.344,12.316
			C454.621,171.523,449.863,186.357,449.863,186.357z"/>
		<path style="fill:#1D3345;" d="M472.913,281.007c0,0,41.083-45.164,47.098-71.756c6.015-26.592-14.479-67.874-14.479-67.874
			l-19.763,6.172l6.216,45.415c0.684,5-1.033,10.029-4.633,13.566l-39.547,38.855c0,0-4.48,16.675-26.115,16.734
			c-21.635-0.059-26.115-16.734-26.115-16.734l-39.547-38.855c-3.6-3.537-5.317-8.566-4.633-13.566l6.216-45.415l-19.763-6.172
			c0,0-20.493,41.282-14.479,67.874c6.015,26.592,45.267,54.055,45.267,54.055l4.871,74.269c0,0,4.153,24.775-3.04,28.692
			c-7.193,3.917-4.979,7.254-4.979,7.254c17.891,17.613,53.943,17.498,56.203,17.473c2.26,0.025,38.312,0.14,56.202-17.473
			c0,0,2.214-3.337-4.979-7.254c-7.193-3.917-3.04-28.692-3.04-28.692L472.913,281.007z"/>
		<path style="fill:#15222C;" d="M392.601,325.461c-8.095-2.698-15.015-7.449-20.78-13.596l1.686,25.711
			c0,0,4.153,24.775-3.04,28.692c-7.193,3.917-4.979,7.254-4.979,7.254c17.891,17.613,53.943,17.498,56.203,17.473
			c2.26,0.025,38.312,0.14,56.202-17.473c0,0,2.214-3.337-4.979-7.254c-7.193-3.917-3.04-28.692-3.04-28.692l0.855-15.915
			C447.59,335.421,416.396,334.487,392.601,325.461z"/>
		<path style="fill:#E9A585;" d="M368.487,263.26l0.149,0.047l-6.576-4.46c-3.071-2.083-4.909-5.552-4.909-9.263V238.68
			l-31.015,0.997v9.593c0,3.882-2.012,7.487-5.316,9.525l-7.293,4.499C314.375,264.018,338.532,284.231,368.487,263.26z"/>
		<path style="fill:#A8624B;" d="M326.137,246.502v-6.825l31.015-0.997v9.406C352.298,260.501,331.355,259.71,326.137,246.502z"/>
		<circle style="fill:#271E6D;" cx="335.472" cy="171.314" r="14.966"/>
		<path style="fill:#271E6D;" d="M343.627,163.651c0,2.857,2.316,5.174,5.174,5.174s5.174-2.316,5.174-5.174
			c0-2.857-2.316-5.174-5.174-5.174S343.627,160.793,343.627,163.651z"/>
		<path style="fill:#271E6D;" d="M315.333,168.27c0,2.857,2.316,5.174,5.174,5.174c2.857,0,5.174-2.316,5.174-5.174
			c0-2.857-2.316-5.174-5.174-5.174C317.649,163.096,315.333,165.413,315.333,168.27z"/>
		<path style="fill:#271E6D;" d="M298.522,191.135c0,2.857,2.316,5.174,5.174,5.174c2.857,0,5.174-2.316,5.174-5.174
			c0-2.857-2.316-5.174-5.174-5.174C300.838,185.961,298.522,188.278,298.522,191.135z"/>
		<circle style="fill:#271E6D;" cx="302.192" cy="218.26" r="5.174"/>
		<circle style="fill:#271E6D;" cx="359.516" cy="174.178" r="14.966"/>
		
			<ellipse transform="matrix(0.3792 -0.9253 0.9253 0.3792 27.6164 404.4144)" style="fill:#271E6D;" cx="315.207" cy="181.625" rx="14.966" ry="14.965"/>
		<circle style="fill:#271E6D;" cx="306.25" cy="205.441" r="14.965"/>
		<circle style="fill:#271E6D;" cx="313.487" cy="226.564" r="14.965"/>
		<circle style="fill:#271E6D;" cx="370.595" cy="193.992" r="14.965"/>
		<circle style="fill:#271E6D;" cx="364.028" cy="215.662" r="14.965"/>
		<g>
			<path style="fill:#E9A585;" d="M324.896,213.111c0,0-13.277-11.986-16.899-1.404c-3.622,10.582,8.969,22.071,21.661,13.229
				L324.896,213.111z"/>
			<path style="fill:#CF866B;" d="M310.015,221.899c1.331,1.884,3.424,3.211,5.731,3.197c5.934-0.037,7.989-8.096,5.803-14.546
				c1.977,1.327,3.348,2.562,3.348,2.562l4.762,11.825c-10.819,7.537-21.556,0.3-22.249-8.554
				C308.104,218.377,308.872,220.28,310.015,221.899z"/>
			<g>
				<g>
					<g>
						<path style="fill:#222221;" d="M318.211,220.686c-0.101-0.58-0.334-1.151-0.58-1.682c-0.533-1.149-1.351-2.152-2.383-2.888
							c-0.738-0.526-1.599-0.881-2.481-1.075c-0.339-0.075-0.697,0.102-0.792,0.45c-0.089,0.322,0.109,0.717,0.45,0.792
							c0.77,0.17,1.326,0.386,1.974,0.809c0.067,0.044,0.134,0.089,0.199,0.136c0.032,0.023,0.064,0.047,0.096,0.07
							c0.083,0.06-0.069-0.056,0.01,0.007c0.128,0.101,0.251,0.207,0.371,0.318c0.226,0.21,0.436,0.437,0.629,0.677
							c0.022,0.027,0.043,0.054,0.065,0.082c-0.014-0.018-0.075-0.104-0.007-0.007c0.039,0.055,0.08,0.109,0.118,0.164
							c0.079,0.114,0.155,0.23,0.228,0.348c0.13,0.212,0.249,0.43,0.358,0.654c0.048,0.098,0.091,0.198,0.136,0.298
							c0.046,0.1-0.053-0.136,0.009,0.023c0.02,0.051,0.04,0.101,0.06,0.152c0.061,0.161,0.117,0.323,0.166,0.488
							c0.052,0.173,0.102,0.349,0.133,0.527c0.06,0.343,0.48,0.536,0.792,0.45C318.123,221.379,318.271,221.03,318.211,220.686
							L318.211,220.686z"/>
					</g>
				</g>
				<g>
					<g>
						<path style="fill:#222221;" d="M315.988,217.225c-1.129,0.452-2.021,1.503-2.277,2.691c-0.143,0.661-0.113,1.324,0.016,1.985
							c0.065,0.331,0.479,0.551,0.792,0.45c0.353-0.114,0.519-0.437,0.45-0.792c-0.013-0.068-0.026-0.137-0.037-0.206
							c-0.004-0.029-0.009-0.057-0.013-0.086c0.001,0.01,0.01,0.105,0.005,0.03c-0.008-0.135-0.023-0.268-0.025-0.403
							c-0.002-0.109,0.001-0.217,0.009-0.326c0.003-0.048,0.011-0.095,0.013-0.143c0.004-0.092-0.023,0.122-0.005,0.033
							c0.006-0.03,0.01-0.06,0.015-0.09c0.034-0.189,0.085-0.376,0.152-0.556c0.003-0.007,0.031-0.062,0.029-0.075
							c0,0-0.056,0.123-0.026,0.063c0.02-0.04,0.038-0.082,0.058-0.123c0.039-0.078,0.081-0.155,0.126-0.229
							c0.04-0.066,0.083-0.131,0.128-0.194c0.047-0.065,0.108-0.077-0.008,0.007c0.028-0.02,0.052-0.064,0.074-0.09
							c0.094-0.111,0.196-0.215,0.304-0.312c0.046-0.041,0.093-0.08,0.139-0.119c0.08-0.067-0.006,0.013-0.047,0.035
							c0.028-0.015,0.055-0.041,0.081-0.06c0.082-0.059,0.167-0.114,0.255-0.166c0.065-0.038,0.13-0.074,0.198-0.106
							c0.13-0.063,0.021-0.01-0.066,0.025c0.312-0.125,0.565-0.436,0.45-0.792C316.683,217.374,316.323,217.091,315.988,217.225
							L315.988,217.225z"/>
					</g>
				</g>
			</g>
		</g>
		<path style="fill:#E9A585;" d="M365.003,180.2c0,0,9.779,42.518,3.472,53.265c-7.752,13.21-34.051,14.665-42.287,6.728
			c-5.641-5.436-11.782-31.174-9.83-52.254C316.358,187.94,334.867,161.345,365.003,180.2z"/>
		<path style="fill:#222221;" d="M337.851,210.411c0.276,1.736-0.565,3.313-1.879,3.522c-1.314,0.209-2.603-1.029-2.879-2.765
			c-0.276-1.736,0.565-3.313,1.879-3.522C336.286,207.437,337.575,208.675,337.851,210.411z"/>
		<path style="fill:#222221;" d="M359.463,207.244c0.276,1.736-0.565,3.313-1.879,3.522c-1.314,0.209-2.603-1.029-2.879-2.765
			c-0.276-1.736,0.565-3.313,1.879-3.522C357.898,204.27,359.187,205.508,359.463,207.244z"/>
		<g>
			<g>
				<path style="fill:#222221;" d="M349.528,220.067c0.872-0.592,1.746-1.394,2.205-2.355c0.633-1.325,0.1-2.409-0.843-3.387
					c-0.8-0.83-1.672-1.591-2.347-2.534c-1.054-1.472-1.643-3.183-1.866-4.974c-0.053-0.428-0.326-0.787-0.792-0.792
					c-0.387-0.004-0.845,0.368-0.792,0.792c0.222,1.784,0.689,3.518,1.62,5.07c0.638,1.064,1.466,1.986,2.346,2.852
					c0.541,0.533,1.566,1.223,1.356,2.017c-0.214,0.81-1.171,1.593-1.686,1.943C347.889,219.268,348.681,220.642,349.528,220.067
					L349.528,220.067z"/>
			</g>
		</g>
		<path style="fill:#D46A55;" d="M337.986,220.874c0.414,2.602-2.111,5.166-5.64,5.728c-3.529,0.562-6.725-1.093-7.139-3.695
			c-0.414-2.602,2.111-5.166,5.64-5.728C334.376,216.618,337.572,218.272,337.986,220.874z"/>
		<path style="fill:#D46A55;" d="M369.908,216.698c0.414,2.602-2.111,5.166-5.64,5.728c-3.529,0.562-6.725-1.093-7.139-3.695
			c-0.414-2.602,2.111-5.166,5.64-5.728C366.297,212.442,369.494,214.096,369.908,216.698z"/>
		<g>
			<g>
				<path style="fill:#222221;" d="M333.926,223.33c0.753,2.889,2.563,5.768,5.009,7.489c4.053,2.852,9.928,1.802,13.55-1.241
					c0.782-0.657-0.344-1.773-1.12-1.12c-3.211,2.697-8.541,3.478-11.969,0.738c-1.909-1.526-3.327-3.925-3.942-6.288
					C335.197,221.922,333.668,222.34,333.926,223.33L333.926,223.33z"/>
			</g>
		</g>
		<path style="fill:#222221;" d="M337.05,199.989c0.418,1.47-1.582,1.156-4.34,1.939c-2.758,0.784-5.228,2.368-5.646,0.899
			c-0.418-1.47,1.479-3.297,4.237-4.08C334.059,197.963,336.633,198.519,337.05,199.989z"/>
		<path style="fill:#222221;" d="M350.728,198.372c0.059,1.527,1.863,0.608,4.727,0.497c2.865-0.111,5.705,0.629,5.646-0.898
			c-0.059-1.527-2.429-2.675-5.294-2.564C352.943,195.517,350.669,196.845,350.728,198.372z"/>
		<path style="fill:#CF866B;" d="M348.686,236.055c0.062,0.678-0.964,1.325-2.291,1.446c-1.327,0.121-2.452-0.331-2.514-1.009
			c-0.062-0.678,1.042-0.471,2.368-0.592C347.577,235.779,348.625,235.377,348.686,236.055z"/>
		<path style="fill:#271E6D;" d="M315.092,207.623c0,0,1.08,3.784,3.98,2.388s-0.56-11.62-0.56-11.62s13.557,1.738,9.69-9.325
			c0,0,3.813,3.974,9.344,2.739c5.532-1.235,6.122-9.72,6.122-9.72s1.128,3.383,3.706,3.598c2.578,0.215,5.8-4.135,5.8-4.135
			s5.063,16.038,15.313,17.068l-0.545-21.15c0,0-34.156-16.326-54.456,7.196L315.092,207.623z"/>
		<g>
			<path style="fill:#E9A585;" d="M316.924,299.696l19.333,34.585c0,0,47.259-4.941,59.074-2.578l2.578,12.889
				c0,0-59.218,24.059-69.457,21.482c-10.24-2.578-35.588-44.037-35.588-44.037S300.168,302.274,316.924,299.696z"/>
			<path style="fill:#E9A585;" d="M387.22,337.013c0,0-3.387-5.553,1.46-9.973c4.848-4.42,4.522-11.49,7.643-12.434
				c2.58-0.78,3.079,3.738,2.059,7.014c-0.747,2.398-2.967,4.686-2.304,4.741c0.663,0.055,4.752-0.397,6.65-1.703
				c2.156-1.484,12.378-9.735,12.795-10.172c3.128-3.27,4.489-1.441,4.489-1.441c2.467,2.329-4.077,8.12-5.878,9.755
				c-2.716,2.467-7.526,6.224-7.526,6.224l0.257,0.495c0,0,18.501-6.78,19.465-7.121c1.637-0.58,2.512,0.349,2.711,0.823
				c0.304,0.723,0.191,1.984-1.706,3.199c-2.864,1.835-13.252,7.749-17.801,9.166c0,0,10.837-2.833,15.262-2.692
				c1.468,0.047,3.835,0.078,3.93,1.764c0.108,1.923-3.215,2.573-3.717,2.712c-3.427,0.95-11.589,2.78-15.329,2.954L409.499,341
				c0,0,10.209-0.658,12.894,0.47c0.259,0.109,1.565,0.612,1.347,1.825c-0.344,1.907-2.185,1.406-2.566,1.322
				c-1.897-0.418-14.945,1.497-16.177,1.816c-2.895,0.749-8.399,1.68-12.616-0.554C386.383,342.701,387.22,337.013,387.22,337.013z"
				/>
			<path style="fill:#487FD2;" d="M291.576,324.543c0,0-16.183-30.003-6.731-46.83c7.643-13.607,22.521-13.175,22.521-13.175
				l15.717,37.5C323.082,302.038,306.183,312.227,291.576,324.543z"/>
		</g>
		<path style="fill:#DD4D61;" d="M437.523,228.404c0,0,4.282-3.773,7.109-9.021c3.693-6.856,6.693-15.327,12.569-12.041
			c18.257,10.211,13.017,57.66,0.987,74.629l-12.382-4.296c0,0,4.81-26.689,2.049-28.141
			C445.095,248.082,437.523,239.707,437.523,228.404z"/>
		<path style="fill:#DD4D61;" d="M406.083,226.587c0,0-5.412-2.194-9.39-7.204c-3.541-4.459-5.429-11.923-9.309-10.132
			c-18.992,8.767-14.246,55.751-2.216,72.72l12.382-4.296c0,0-4.81-26.689-2.049-28.141
			C398.261,248.082,406.083,237.89,406.083,226.587z"/>
		<path style="fill:#271E6D;" d="M436.33,96.194c0,0,1.321,11.6-2.546,11.171c-3.867-0.43-6.655-17.334-11.027-21.768
			c0,0-1.074,5.943,1.647,8.02l-7.518,0.788c0,0-4.368-2.721-4.01-8.808c0,0-3.278,0.859-1.675,9.309l-17.444,2.077
			c0,0,1.497-19.732,18.328-17.563C428.915,81.587,436.33,96.194,436.33,96.194z"/>
		<path style="fill:#E8AF8E;" d="M472.913,116.327l8.604-10.533l4.539,1.581l-4.539,15.253
			C481.517,122.629,476.956,121.925,472.913,116.327z"/>
		<path style="fill:#E9A585;" d="M483.461,106.707c1.19,3.561,2.034,7.118,0.126,7.756c-1.909,0.638-2.975-2.214-4.165-5.775
			c-1.19-3.561-2.053-6.481-0.144-7.119C481.186,100.931,482.271,103.146,483.461,106.707z"/>
		<path style="fill:#E9A585;" d="M486.974,104.949c1.19,3.56,2.034,7.118,0.126,7.756c-1.909,0.638-2.975-2.214-4.165-5.775
			c-1.19-3.561-2.052-6.481-0.144-7.119C484.699,99.173,485.784,101.389,486.974,104.949z"/>
		<path style="fill:#E9A585;" d="M491.044,104.192c1.054,3.155,1.768,6.319-0.141,6.957c-1.909,0.638-2.866-1.886-3.92-5.041
			c-1.054-3.155-1.807-5.747,0.102-6.385C488.994,99.086,489.99,101.037,491.044,104.192z"/>
		<path style="fill:#E9A585;" d="M495.223,106.633c0.487,3.291,0.637,6.531-1.354,6.825s-2.492-2.357-2.979-5.648
			c-0.487-3.291-0.776-5.974,1.215-6.269C494.096,101.247,494.736,103.343,495.223,106.633z"/>
		<path style="fill:#E9A585;" d="M485.446,127.154c0,0,6.604-4.456-5.189-12.554c-3.246-2.229,0.402-9.338-2.45-8.466
			C474.954,107.005,472.949,120.849,485.446,127.154z"/>
		<g>
			<g>
				<path style="fill:#222221;" d="M481.359,102.792c0.585,1.082,1.11,2.201,1.596,3.331c0.786,1.825,1.636,3.86,1.706,5.873
					c0.026,0.741-0.066,1.595-0.828,1.924c-0.426,0.184-0.058,0.806,0.365,0.624c1.699-0.733,1.205-3.229,0.861-4.61
					c-0.526-2.114-1.415-4.147-2.364-6.102c-0.229-0.472-0.463-0.942-0.712-1.404C481.761,102.019,481.137,102.383,481.359,102.792
					L481.359,102.792z"/>
			</g>
		</g>
		<g>
			<g>
				<path style="fill:#222221;" d="M485.598,102.343c0.47,0.877,0.882,1.792,1.255,2.714c0.638,1.58,1.265,3.312,1.276,5.036
					c0.004,0.726-0.122,1.576-0.75,2.037c-0.371,0.272-0.011,0.899,0.365,0.624c1.382-1.013,1.202-2.968,0.895-4.453
					c-0.369-1.789-1.069-3.515-1.843-5.165c-0.183-0.389-0.37-0.778-0.573-1.157C486.002,101.568,485.378,101.933,485.598,102.343
					L485.598,102.343z"/>
			</g>
		</g>
		<g>
			<g>
				<path style="fill:#222221;" d="M490.298,103.154c0.293,0.736,0.542,1.493,0.765,2.253c0.372,1.265,0.737,2.628,0.655,3.958
					c-0.029,0.476-0.134,1.041-0.599,1.275c-0.416,0.209-0.05,0.832,0.365,0.624c1.122-0.564,1.026-2.187,0.895-3.228
					c-0.178-1.414-0.577-2.799-1.043-4.144c-0.108-0.312-0.219-0.624-0.341-0.931C490.824,102.535,490.125,102.722,490.298,103.154
					L490.298,103.154z"/>
			</g>
		</g>
		<g>
			<g>
				<path style="fill:#222221;" d="M492.938,111.597c0.851,0.312,1.952,0.214,2.517-0.56c0.611-0.835,0.453-2.001,0.301-2.952
					c-0.207-1.292-0.436-2.582-0.725-3.859c-0.102-0.452-0.203-0.91-0.346-1.352c-0.142-0.44-0.84-0.252-0.697,0.192
					c0.386,1.194,0.594,2.465,0.815,3.696c0.189,1.056,1.105,4.166-0.781,4.272c-0.319,0.018-0.579-0.018-0.892-0.133
					C492.693,110.74,492.504,111.438,492.938,111.597L492.938,111.597z"/>
			</g>
		</g>
		<g>
			<g>
				<path style="fill:#222221;" d="M476.673,108.102c0.136-0.507,0.392-1.063,0.787-1.417c0.246-0.221,0.849-0.523,1.15-0.219
					c0.153,0.154,0.093,0.525,0.079,0.714c-0.127,1.736-0.726,3.37-0.307,5.126c0.557,2.338,2.922,3.566,4.799,4.757
					c2.075,1.318,4.556,2.645,5.473,5.076c0.163,0.431,0.861,0.244,0.697-0.192c-0.707-1.875-2.201-3.139-3.822-4.233
					c-1.014-0.684-2.066-1.311-3.085-1.987c-1.011-0.67-2.195-1.356-2.863-2.398c-1.014-1.582-0.582-3.53-0.293-5.254
					c0.15-0.893,0.394-2.217-0.813-2.408c-1.327-0.21-2.198,1.122-2.499,2.242C475.855,108.359,476.552,108.551,476.673,108.102
					L476.673,108.102z"/>
			</g>
		</g>
		<path style="fill:#E9A585;" d="M356.403,143.23l3.919-15.654c9.599-18.34-12.103-24.535-15.669-15.919
			c-4.308,10.41,0.08,13.157,0.08,13.157l-5.186,14.755L356.403,143.23z"/>
		<path style="fill:#E8AF8E;" d="M366.77,118.776l-9.589-9.644l-4.363,2.016l6.004,14.738
			C358.821,125.886,363.292,124.741,366.77,118.776z"/>
		<path style="fill:#E9A585;" d="M355.335,110.229c-0.837,3.66-1.331,7.282,0.631,7.731c1.962,0.449,2.745-2.494,3.583-6.153
			c0.837-3.66,1.411-6.65-0.551-7.099C357.035,104.259,356.172,106.57,355.335,110.229z"/>
		<path style="fill:#E9A585;" d="M351.667,108.822c-0.837,3.66-1.331,7.282,0.631,7.731c1.962,0.449,2.745-2.494,3.583-6.153
			c0.837-3.66,1.411-6.65-0.551-7.099C353.368,102.852,352.504,105.163,351.667,108.822z"/>
		<path style="fill:#E9A585;" d="M347.542,108.466c-0.742,3.243-1.143,6.461,0.819,6.91c1.962,0.449,2.668-2.156,3.41-5.399
			c0.742-3.243,1.239-5.896-0.723-6.344C349.086,103.184,348.284,105.223,347.542,108.466z"/>
		<path style="fill:#E9A585;" d="M343.621,111.303c-0.164,3.323,0.003,6.562,2.013,6.661c2.01,0.099,2.251-2.589,2.415-5.911
			c0.164-3.323,0.19-6.021-1.82-6.121C344.218,105.832,343.785,107.98,343.621,111.303z"/>
		<path style="fill:#E9A585;" d="M355.352,130.773c0,0-7.006-3.791,3.941-13c3.014-2.535-1.311-9.255,1.613-8.665
			C363.83,109.697,367.174,123.28,355.352,130.773z"/>
		<g>
			<g>
				<path style="fill:#222221;" d="M356.369,105.881c-0.545,1.295-1.011,2.63-1.422,3.973c-0.605,1.981-1.293,4.274-0.949,6.365
					c0.14,0.85,0.561,1.626,1.422,1.901c0.444,0.142,0.634-0.555,0.192-0.697c-1.514-0.485-0.939-3.266-0.733-4.358
					c0.368-1.952,0.989-3.86,1.686-5.717c0.16-0.427,0.324-0.854,0.501-1.275C357.245,105.646,356.547,105.459,356.369,105.881
					L356.369,105.881z"/>
			</g>
		</g>
		<g>
			<g>
				<path style="fill:#222221;" d="M352.106,105.847c-0.438,1.052-0.797,2.143-1.106,3.239c-0.493,1.75-0.95,3.699-0.633,5.521
					c0.143,0.824,0.527,1.603,1.265,2.041c0.401,0.238,0.765-0.387,0.365-0.624c-1.311-0.777-1.064-2.9-0.874-4.16
					c0.245-1.628,0.721-3.225,1.278-4.771c0.128-0.354,0.258-0.706,0.403-1.053C352.981,105.61,352.283,105.423,352.106,105.847
					L352.106,105.847z"/>
			</g>
		</g>
		<g>
			<g>
				<path style="fill:#222221;" d="M347.48,107.202c-0.248,0.858-0.44,1.736-0.597,2.614c-0.248,1.389-0.499,2.945-0.146,4.337
					c0.158,0.624,0.492,1.174,1.111,1.413c0.434,0.167,0.622-0.531,0.192-0.697c-0.392-0.151-0.545-0.629-0.628-0.999
					c-0.138-0.609-0.124-1.254-0.085-1.874c0.08-1.273,0.328-2.537,0.631-3.775c0.068-0.277,0.138-0.554,0.217-0.828
					C348.306,106.947,347.609,106.756,347.48,107.202L347.48,107.202z"/>
			</g>
		</g>
		<g>
			<g>
				<path style="fill:#222221;" d="M346.068,115.37c-0.016,0.008-0.082,0.036-0.02,0.01c0.051-0.022-0.102,0.038-0.14,0.051
					c-0.16,0.055-0.375,0.107-0.502,0.122c-0.454,0.051-0.887-0.057-1.152-0.463c-0.586-0.894-0.308-2.266-0.236-3.253
					c0.076-1.037,0.167-2.074,0.305-3.104c0.048-0.356,0.095-0.716,0.172-1.068c0.099-0.453-0.597-0.647-0.697-0.192
					c-0.326,1.49-0.411,3.058-0.517,4.574c-0.077,1.096-0.28,2.453,0.366,3.434c0.357,0.541,0.943,0.821,1.585,0.806
					c0.41-0.01,0.831-0.114,1.201-0.293C346.851,115.792,346.485,115.169,346.068,115.37L346.068,115.37z"/>
			</g>
		</g>
		<g>
			<g>
				<path style="fill:#222221;" d="M362.912,110.73c-0.344-0.912-1.061-1.97-2.117-2.071c-1.315-0.125-1.554,0.886-1.328,1.931
					c0.351,1.619,1.054,3.209,0.705,4.899c-0.243,1.177-1.031,1.963-1.899,2.732c-0.944,0.838-1.948,1.602-2.941,2.38
					c-1.836,1.438-3.732,2.992-4.367,5.335c-0.122,0.449,0.575,0.641,0.697,0.192c0.669-2.473,2.901-4.017,4.819-5.513
					c1.773-1.382,4.064-2.827,4.439-5.222c0.273-1.742-0.4-3.328-0.755-4.995c-0.043-0.201-0.169-0.583-0.065-0.787
					c0.193-0.379,0.787-0.251,1.091-0.069c0.48,0.288,0.832,0.867,1.025,1.38C362.378,111.353,363.077,111.167,362.912,110.73
					L362.912,110.73z"/>
			</g>
		</g>
		<path style="fill:#E1CEC1;" d="M332.971,145.673c0,0,8.056,9.022,25.563,9.237l3.33-13.856c0,0-16.346-4.405-23.542-9.346
			L332.971,145.673z"/>
		<path style="fill:#E1CEC1;" d="M395.179,278.497c0,0,0.167,4.06,2.731,7.147c2.564,3.087-4.815,13.025-10.461,11.444
			c-5.647-1.581,2.294-9.649,2.577-10.885s-2.944-4.896-2.944-4.896L395.179,278.497z"/>
		<path style="fill:#E1CEC1;" d="M448.164,278.497c0,0-0.167,4.06-2.731,7.147c-2.564,3.087,4.815,13.025,10.461,11.444
			c5.647-1.581-2.294-9.649-2.577-10.885c-0.284-1.236,2.944-4.896,2.944-4.896L448.164,278.497z"/>
		<path style="fill:#E1CEC1;" d="M510.41,145.673c0,0-8.056,9.022-25.563,9.237l-3.33-13.856c0,0,16.346-4.405,23.542-9.346
			L510.41,145.673z"/>
	</g>
	<g>
		<path style="fill:#222221;" d="M553.83,170.202c0,0,3.066-13.8,23.632-12.395c20.566,1.405,33.85,15.483,33.723,43.572
			c0,0,38.192,54.02-15.777,62.322c-53.968,8.303-88.457,6.259-83.859-16.35c4.599-22.61,20.693-22.534,16.734-40.034
			C524.323,189.817,540.418,167.268,553.83,170.202z"/>
		<path style="fill:#B5A2B8;" d="M542.49,311.655l-3.861,37.376c0,0-20.693,26.825-16.095,74.088h98.151l-2.41-115.733
			L542.49,311.655z"/>
		<path style="fill:#644B87;" d="M638.736,303.827c0,0,0.16,5.94-34.984,4.024v-15.852
			C603.752,291.999,633.371,291.756,638.736,303.827z"/>
		<path style="fill:#E8AF8E;" d="M631.334,351.346c0.421-12.349,1.28-53.458,1.28-53.458h-24.07c0,0-2.571,39.83-0.153,53.458
			H631.334z"/>
		<path style="fill:#7A5FA0;" d="M599.05,251.761l2.288,49.767c0,0,20.154-4.599,37.398,2.299c0,0,2.874-6.851-4.79-11.76
			C633.946,292.067,639.509,249.401,599.05,251.761z"/>
		<path style="fill:#644B87;" d="M508.547,302.981c0,0-0.16,5.94,34.984,4.024v-15.852
			C543.531,291.153,513.912,290.91,508.547,302.981z"/>
		<g>
			<path style="fill:#E8AF8E;" d="M555.211,211.496c0,0-12.154-10.183-15.017-0.69c-2.862,9.493,8.669,19.258,19.622,11.01
				L555.211,211.496z"/>
			<path style="fill:#CF866B;" d="M542.316,219.768c1.24,1.625,3.139,2.733,5.181,2.644c5.255-0.227,6.812-7.434,4.664-13.076
				c1.795,1.111,3.049,2.16,3.049,2.16l4.606,10.319c-9.337,7.031-19.086,0.972-19.99-6.849
				C540.508,216.711,541.25,218.371,542.316,219.768z"/>
			<g>
				<g>
					<g>
						<path style="fill:#222221;" d="M549.542,218.445c-0.109-0.51-0.329-1.012-0.564-1.473c-0.509-0.997-1.261-1.871-2.199-2.488
							c-0.671-0.442-1.443-0.733-2.231-0.876c-0.303-0.055-0.616,0.083-0.702,0.399c-0.076,0.277,0.094,0.647,0.399,0.702
							c0.69,0.125,1.212,0.307,1.777,0.647c0.121,0.073,0.24,0.151,0.354,0.233c0.028,0.02,0.056,0.041,0.084,0.061
							c0.072,0.053-0.063-0.051,0.007,0.005c0.059,0.047,0.118,0.095,0.175,0.145c0.207,0.178,0.4,0.372,0.579,0.579
							c0.04,0.046,0.079,0.094,0.118,0.141c0.019,0.023,0.038,0.047,0.057,0.071c-0.012-0.015-0.069-0.093-0.007-0.009
							c0.073,0.099,0.145,0.198,0.213,0.301c0.122,0.184,0.235,0.373,0.338,0.568c0.09,0.169,0.164,0.345,0.247,0.517
							c0.031,0.065-0.044-0.117-0.022-0.05c0.007,0.019,0.015,0.037,0.023,0.056c0.014,0.036,0.028,0.071,0.042,0.107
							c0.026,0.068,0.051,0.137,0.075,0.207c0.052,0.151,0.102,0.306,0.135,0.463c0.064,0.302,0.418,0.477,0.702,0.399
							C549.456,219.062,549.607,218.748,549.542,218.445L549.542,218.445z"/>
					</g>
				</g>
				<g>
					<g>
						<path style="fill:#222221;" d="M547.338,215.484c-0.295,0.131-0.568,0.35-0.801,0.567c-0.513,0.478-0.886,1.132-1.008,1.825
							c-0.103,0.589-0.067,1.172,0.069,1.753c0.068,0.291,0.417,0.491,0.702,0.399c0.304-0.098,0.472-0.391,0.399-0.702
							c-0.026-0.113-0.045-0.227-0.068-0.341c-0.014-0.067,0.001,0.017,0.003,0.026c-0.003-0.025-0.006-0.049-0.008-0.074
							c-0.007-0.064-0.012-0.128-0.015-0.192c-0.005-0.099-0.006-0.198-0.003-0.297c0.002-0.044,0.004-0.087,0.007-0.131
							c0.002-0.028,0.005-0.057,0.008-0.085c0.006-0.079-0.009-0.005-0.005,0.028c-0.018-0.149,0.075-0.368,0.123-0.509
							c0.012-0.034,0.025-0.068,0.038-0.102c0.046-0.123-0.039,0.076,0.004-0.01c0.036-0.071,0.069-0.143,0.108-0.212
							c0.032-0.057,0.066-0.112,0.102-0.166c0.02-0.031,0.042-0.06,0.063-0.09c0.069-0.101-0.063,0.074-0.006,0.006
							c0.082-0.098,0.165-0.193,0.257-0.282c0.04-0.039,0.081-0.076,0.123-0.112c0.018-0.016,0.037-0.031,0.055-0.047
							c0.012-0.01,0.025-0.019,0.036-0.029c0.056-0.048-0.06,0.047-0.062,0.048c0.075-0.038,0.144-0.105,0.216-0.151
							c0.077-0.049,0.156-0.096,0.24-0.133c0.274-0.122,0.359-0.542,0.205-0.781C547.936,215.405,547.631,215.353,547.338,215.484
							L547.338,215.484z"/>
					</g>
				</g>
			</g>
		</g>
		<path style="fill:#E8AF8E;" d="M561.792,222.968l-0.751,16.64c-0.104,2.308-1.173,4.466-2.945,5.947l-7.425,6.206
			c0,0,23.776,25.409,46.009,0.762l-7.216-6.669c-1.799-1.662-2.764-4.039-2.634-6.485l0.556-10.46L561.792,222.968z"/>
		<path style="fill:#A8624B;" d="M561.507,229.265l0.284-6.297l25.594,5.941l-0.513,9.654
			C584.23,240.638,568.095,249.324,561.507,229.265z"/>
		<path style="fill:#E8AF8E;" d="M575.818,165.48c0,0,27.647,2.089,24.925,34.531c-0.111,1.317,0.148,2.631,0.696,3.833
			c2.26,4.968,8.563,20.248-15.086,31.614c-0.904,0.435-1.893,0.666-2.896,0.699c-6.513,0.218-30.733-0.947-37.262-29.581
			C538.63,173.398,575.818,165.48,575.818,165.48z"/>
		<path style="fill:#222221;" d="M571.391,203.723c0.337,1.711-0.438,3.304-1.733,3.56c-1.294,0.255-2.617-0.924-2.955-2.635
			s0.439-3.304,1.733-3.56S571.053,202.012,571.391,203.723z"/>
		<path style="fill:#222221;" d="M591.664,199.724c0.337,1.711-0.438,3.304-1.733,3.56c-1.295,0.255-2.617-0.924-2.955-2.635
			c-0.337-1.711,0.438-3.304,1.733-3.56C590.004,196.833,591.327,198.013,591.664,199.724z"/>
		<g>
			<g>
				<path style="fill:#222221;" d="M584.836,212.577c0.851-0.624,1.675-1.431,2.11-2.405c0.608-1.362,0.01-2.442-0.981-3.385
					c-0.856-0.815-1.769-1.571-2.485-2.52c-1.09-1.445-1.671-3.14-1.958-4.913c-0.161-0.996-1.676-0.573-1.515,0.418
					c0.277,1.71,0.836,3.387,1.799,4.837c0.671,1.01,1.505,1.875,2.397,2.69c0.56,0.512,1.574,1.163,1.424,1.921
					c-0.107,0.546-0.55,1.029-0.928,1.411c-0.163,0.164-0.333,0.321-0.51,0.47c-0.067,0.056-0.134,0.11-0.202,0.165
					c0.175-0.142,0.099-0.076,0.057-0.045C583.236,211.813,584.019,213.177,584.836,212.577L584.836,212.577z"/>
			</g>
		</g>
		<path style="fill:#D46A55;" d="M573.438,216.129c0.506,2.564-1.903,5.198-5.38,5.884c-3.477,0.686-6.706-0.837-7.212-3.4
			c-0.506-2.564,1.903-5.198,5.38-5.884C569.703,212.043,572.932,213.565,573.438,216.129z"/>
		<path style="fill:#D46A55;" d="M601.704,210.554c0.506,2.564-1.903,5.198-5.38,5.884c-3.477,0.686-6.706-0.837-7.212-3.4
			c-0.506-2.564,1.903-5.198,5.38-5.884C597.969,206.467,601.198,207.99,601.704,210.554z"/>
		<g>
			<g>
				<path style="fill:#222221;" d="M574.501,220.127c2.345,2.366,5.362,3.739,8.718,3.276c3.219-0.445,6.121-2.146,8.079-4.734
					c0.61-0.807-0.754-1.591-1.357-0.793c-1.656,2.189-4.25,3.615-6.958,3.987c-2.859,0.393-5.385-0.844-7.37-2.846
					C574.899,218.296,573.788,219.408,574.501,220.127L574.501,220.127z"/>
			</g>
		</g>
		<path style="fill:#222221;" d="M571.757,193.118c0.468,1.441-1.526,1.204-4.23,2.081c-2.705,0.878-5.096,2.539-5.563,1.098
			c-0.468-1.442,1.345-3.322,4.05-4.2C568.717,191.219,571.289,191.676,571.757,193.118z"/>
		<path style="fill:#222221;" d="M585.255,191.013c0.115,1.511,1.869,0.534,4.704,0.319c2.835-0.215,5.678,0.414,5.563-1.097
			c-0.114-1.511-2.506-2.562-5.341-2.347C587.346,188.103,585.14,189.502,585.255,191.013z"/>
		<path style="fill:#CF866B;" d="M586.376,228.081c0.131,0.662-0.814,1.407-2.111,1.662c-1.296,0.256-2.453-0.074-2.584-0.736
			c-0.131-0.662,0.979-0.572,2.275-0.828C585.253,227.923,586.245,227.419,586.376,228.081z"/>
		<g>
			<path style="fill:#E79E9E;" d="M722.256,374.45c-3.154-38.449-15.529-55.055-15.529-55.055l-35.077-0.982v77.369h0.865v50.328
				h41.734C714.249,446.111,724.655,403.684,722.256,374.45z"/>
			<path style="fill:#E79E9E;" d="M621.045,374.45c3.154-38.449,15.529-55.055,15.529-55.055l35.077-0.982v77.369h-0.865v50.328
				h-41.734C629.052,446.111,618.646,403.684,621.045,374.45z"/>
			<path style="fill:#CF866B;" d="M633.164,272.531l6.055-26.404c0,0,3.819-14.271-0.243-19.445c0,0-39.343,21.299-20.451,64.672
				c2.327,5.343,75.165,1.15,75.165,1.15v-8.726C693.691,283.779,657.056,266.4,633.164,272.531z"/>
			<g>
				<path style="fill:#E9A585;" d="M690.392,171.702c0,0,11.138-13.811,16.335-4.01c5.198,9.801-5.346,23.018-19.157,16.335
					L690.392,171.702z"/>
				<path style="fill:#CF866B;" d="M706.339,177.99c-1.01,2.053-2.854,3.68-5.115,4.025c-5.818,0.889-9.088-6.686-7.951-13.345
					c-1.73,1.608-2.88,3.031-2.88,3.031l-2.822,12.326c11.772,5.697,21.163-3.066,20.461-11.847
					C707.662,174.243,707.206,176.227,706.339,177.99z"/>
				<g>
					<g>
						<g>
							<path style="fill:#222221;" d="M699.396,178.151c0.002-0.138,0.018-0.276,0.032-0.413c0.011-0.103,0.006-0.039-0.006,0.039
								c0.006-0.037,0.01-0.075,0.016-0.112c0.013-0.083,0.027-0.166,0.042-0.248c0.038-0.203,0.085-0.404,0.139-0.603
								c0.062-0.225,0.134-0.448,0.216-0.667c0.022-0.059,0.046-0.117,0.069-0.176c0.027-0.068-0.008,0.017-0.011,0.026
								c0.015-0.034,0.029-0.068,0.045-0.102c0.056-0.122,0.113-0.243,0.175-0.362c0.294-0.565,0.577-0.96,0.994-1.382
								c0.537-0.544,1.163-0.959,1.903-1.25c0.321-0.126,0.545-0.428,0.446-0.786c-0.084-0.306-0.463-0.574-0.786-0.446
								c-1.459,0.575-2.684,1.549-3.486,2.906c-0.513,0.867-0.851,1.851-0.992,2.848c-0.034,0.241-0.07,0.486-0.074,0.729
								C698.105,178.973,699.383,178.973,699.396,178.151L699.396,178.151z"/>
						</g>
					</g>
					<g>
						<g>
							<path style="fill:#222221;" d="M699.519,175.594c0.08,0.018,0.158,0.045,0.235,0.073c0.038,0.014,0.075,0.029,0.113,0.044
								c0.082,0.031-0.18-0.081-0.069-0.029c0.024,0.011,0.048,0.021,0.072,0.033c0.109,0.051,0.215,0.108,0.318,0.17
								c0.051,0.031,0.101,0.063,0.15,0.096c0.029,0.02,0.059,0.041,0.087,0.062c0.015,0.011,0.029,0.022,0.044,0.033
								c0.08,0.057-0.109-0.089-0.052-0.04c0.117,0.101,0.233,0.2,0.338,0.313c0.055,0.058,0.104,0.121,0.156,0.181
								c0.051,0.058-0.083-0.116-0.039-0.051c0.012,0.018,0.026,0.036,0.039,0.054c0.03,0.042,0.058,0.084,0.086,0.128
								c0.044,0.07,0.086,0.141,0.125,0.214c0.023,0.043,0.045,0.087,0.066,0.132c0.009,0.019,0.019,0.054,0.031,0.068
								c-0.03-0.035-0.05-0.129-0.013-0.029c0.085,0.228,0.151,0.459,0.192,0.699c0.004,0.024,0.017,0.067,0.014,0.089
								c0.009-0.067-0.012-0.106-0.003-0.009c0.007,0.072,0.013,0.143,0.017,0.215c0.008,0.154,0.008,0.307,0.002,0.461
								c-0.012,0.334,0.303,0.654,0.639,0.639c0.357-0.016,0.626-0.281,0.639-0.639c0.039-1.062-0.242-2.087-0.922-2.912
								c-0.419-0.509-0.986-0.874-1.595-1.116c-0.108-0.043-0.218-0.085-0.332-0.11c-0.325-0.074-0.707,0.099-0.786,0.446
								C698.998,175.133,699.17,175.515,699.519,175.594L699.519,175.594z"/>
						</g>
					</g>
				</g>
			</g>
			<path style="fill:#E8AF8E;" d="M682.569,196.156l0.751,16.64c0.104,2.308,1.173,4.466,2.945,5.947l7.425,6.206
				c0,0-23.776,25.409-46.009,0.762l7.216-6.669c1.799-1.662,2.764-4.039,2.634-6.485l-0.556-10.46L682.569,196.156z"/>
			<path style="fill:#508D7E;" d="M693.691,224.95l13.394,1.733l0.992,58.862l6.08,49.22c0,0-48.993,18.43-84.917-5.917
				l5.438-62.918l7.876-40.98l8.398-1.102C650.952,223.848,669.082,244.86,693.691,224.95z"/>
			<path style="fill:#417164;" d="M631.262,305.459l-2.021,23.389c35.923,24.346,84.917,5.917,84.917,5.917l-5.442-44.053
				C685.146,302.321,656.758,309.974,631.262,305.459z"/>
			<path style="fill:#A8624B;" d="M682.854,202.454l-0.284-6.297l-25.594,5.941l0.513,9.654
				C660.131,213.827,676.266,222.512,682.854,202.454z"/>
			<path style="fill:#E8AF8E;" d="M659.228,136.695c0,0-26.72,7.4-17.771,38.702c0.363,1.27,0.363,2.61,0.059,3.895
				c-1.256,5.312-4.482,21.523,20.919,28.097c0.971,0.251,1.986,0.287,2.976,0.126c6.432-1.047,29.969-6.877,30.832-36.233
				C697.245,137.267,659.228,136.695,659.228,136.695z"/>
			<path style="fill:#222221;" d="M670.973,173.359c0,1.743,1.07,3.157,2.389,3.157c1.32,0,2.389-1.413,2.389-3.157
				c0-1.744-1.07-3.157-2.389-3.157C672.043,170.202,670.973,171.615,670.973,173.359z"/>
			<path style="fill:#222221;" d="M650.309,173.359c0,1.743,1.07,3.157,2.389,3.157s2.389-1.413,2.389-3.157
				c0-1.744-1.07-3.157-2.389-3.157S650.309,171.615,650.309,173.359z"/>
			<g>
				<g>
					<path style="fill:#222221;" d="M660.15,183.227c-0.726-0.341-1.572-0.847-1.989-1.551c-0.466-0.786,0.422-1.643,0.872-2.25
						c0.738-0.998,1.407-2.016,1.883-3.168c0.677-1.637,0.902-3.405,0.842-5.167c-0.034-1.009-1.606-1.013-1.572,0
						c0.061,1.799-0.19,3.593-1.008,5.213c-0.545,1.078-1.297,2.003-1.984,2.989c-0.748,1.075-1.069,2.227-0.252,3.382
						c0.585,0.827,1.502,1.482,2.414,1.91C660.267,185.011,661.066,183.657,660.15,183.227L660.15,183.227z"/>
				</g>
			</g>
			<path style="fill:#D46A55;" d="M671.366,185.927c0,2.613,2.873,4.732,6.417,4.732s6.417-2.118,6.417-4.732
				c0-2.613-2.873-4.732-6.417-4.732S671.366,183.314,671.366,185.927z"/>
			<path style="fill:#D46A55;" d="M642.555,185.927c0,2.613,2.873,4.732,6.417,4.732s6.417-2.118,6.417-4.732
				c0-2.613-2.873-4.732-6.417-4.732S642.555,183.314,642.555,185.927z"/>
			<g>
				<g>
					<path style="fill:#222221;" d="M669.765,189.22c-1.516,2.284-3.723,3.979-6.525,4.165c-2.81,0.186-5.65-0.706-7.761-2.587
						c-0.753-0.671-1.868,0.437-1.111,1.111c2.453,2.186,5.776,3.311,9.059,3.033c3.31-0.28,5.893-2.213,7.695-4.929
						C671.683,189.169,670.322,188.381,669.765,189.22L669.765,189.22z"/>
				</g>
			</g>
			<path style="fill:#222221;" d="M668.561,163.025c-0.18,1.505,1.73,0.885,4.553,1.223c2.823,0.338,5.49,1.505,5.671,0
				c0.18-1.505-1.963-2.999-4.786-3.337C671.176,160.574,668.741,161.52,668.561,163.025z"/>
			<path style="fill:#222221;" d="M654.911,163.573c0.18,1.505-1.73,0.885-4.553,1.223c-2.823,0.338-5.491,1.505-5.671,0
				c-0.18-1.505,1.963-2.999,4.786-3.337C652.297,161.122,654.731,162.068,654.911,163.573z"/>
			<path style="fill:#CF866B;" d="M660.985,200.157c0,0.675,1.071,1.223,2.393,1.223c1.321,0,2.393-0.547,2.393-1.223
				c0-0.675-1.071-0.372-2.393-0.372C662.056,199.785,660.985,199.482,660.985,200.157z"/>
			<circle style="fill:none;stroke:#FFFFFF;stroke-width:1.3519;stroke-miterlimit:10;" cx="646.427" cy="174.017" r="10.548"/>
			<circle style="fill:none;stroke:#FFFFFF;stroke-width:1.3519;stroke-miterlimit:10;" cx="675.751" cy="174.017" r="10.548"/>
			<path style="fill:none;stroke:#FFFFFF;stroke-width:1.3519;stroke-miterlimit:10;" d="M657.209,174.478c0,0,4.049-2.539,8.313,0"
				/>
			<path style="fill:#984B3C;" d="M636.506,256.348c0,0-10.983,23.449,10.094,32.518c21.077,9.069,63.486-10.986,63.486-10.986
				s12.518-6.898,4.599-27.719c0,0-11.865-18.522-43.998-8.942c0,0-8.438,2.938-12.302-6.068L636.506,256.348z"/>
			<path style="fill:#984B3C;" d="M637.208,260.375c0,0-23.465,26.661-10.881,32.207s10.695-12.852,23.27-22.935
				C649.598,269.646,649.628,260.608,637.208,260.375z"/>
			<path style="fill:#823026;" d="M625.801,217.219c0,0-9.411-7.508-11.327-14.214c0,0-4.662,4.343-2.459,8.686
				c0,0-2.844,4.215-0.591,8.239c0,0,0.336,10.73,7.298,9.612C625.683,228.424,625.801,217.219,625.801,217.219z"/>
			<path style="fill:#984B3C;" d="M648.206,217.219c0,0,9.411-7.508,11.327-14.214c0,0,4.662,4.343,2.459,8.686
				c0,0,2.844,4.215,0.591,8.239c0,0-0.336,10.73-7.298,9.612C648.324,228.424,648.206,217.219,648.206,217.219z"/>
			<path style="fill:#984B3C;" d="M617.618,231.155c-0.233,2.535-1.675,4.81-3.796,6.218c-3.088,2.05-5.391,3.156-5.447,7.647
				c-0.096,7.664,10.826,18.011,33.148,9.676c0,0,12.55-5.94,16.861-19.544c0,0-3.641-21.173-20.598-21.364
				C623.857,213.631,618.267,224.075,617.618,231.155z"/>
			<path style="fill:#D46A55;" d="M636.506,256.348c0,0,13.95-4.06,21.998-20.836l2.874,3.936c0,0-6.776,16.126-26.345,21.005
				L636.506,256.348z"/>
			<path style="fill:#E8AF8E;" d="M712.896,272.531l-6.055-26.404c0,0-3.818-14.271,0.243-19.445c0,0,9.74-0.584,18.314,14.122
				c6.269,10.752,10.202,47.141-0.783,53.265c-5.09,2.837-72.246-1.565-72.246-1.565v-8.726
				C652.37,283.779,689.005,266.4,712.896,272.531z"/>
			<path style="fill:#984B3C;" d="M698.973,243c0,0,5.876-0.256,6.578-7.026c0.703-6.77,1.341-11.177,6.451-8.495
				s8.814,19.352-7.664,20.502L698.973,243z"/>
			<g>
				<path style="fill:#E8AF8E;" d="M654.413,292.911c2.927-3.944,1.849-9.559-2.14-12.425c-4.367-3.139-11.025-6.93-15.173-4.546
					c-6.591,3.789-9.77,11.861-6.657,13.194c3.113,1.333,4.3-4.44,6.523-5.33c0,0-2.563,1.462-4.183,5.421
					c-0.242,0.592-0.188,1.262,0.167,1.793c0.529,0.792,1.415,1.82,2.397,1.708c1.576-0.179,2.705-5.179,5.666-5.901
					c0,0-2.788,0.718-4.276,4.897c-0.464,1.304,0.133,2.782,1.401,3.337c0.658,0.288,1.324,0.36,1.717-0.201
					c0.98-1.398,2.923-4.321,4.546-3.087c1.623,1.234,6.801,5.342,9.92,1.262C654.352,292.993,654.383,292.953,654.413,292.911z"/>
				<g>
					<g>
						<path style="fill:#222221;" d="M633.812,288.198c0.338-0.541,0.713-1.061,1.101-1.566c0.671-0.873,1.529-1.871,2.445-2.544
							c0.26-0.191,0.533-0.361,0.822-0.503c0.099-0.049,0.164-0.076,0.314-0.123c0.071-0.022,0.142-0.042,0.214-0.058
							c0.024-0.005,0.047-0.01,0.071-0.015c0.151-0.031-0.096,0.007,0.055-0.009c0.268-0.03,0.5-0.208,0.5-0.5
							c0-0.247-0.23-0.53-0.5-0.5c-1.273,0.141-2.333,1.029-3.205,1.906c-0.84,0.846-1.582,1.796-2.26,2.776
							c-0.144,0.208-0.286,0.417-0.42,0.631C632.608,288.241,633.472,288.743,633.812,288.198L633.812,288.198z"/>
					</g>
				</g>
				<g>
					<g>
						<path style="fill:#222221;" d="M637.409,291.405c0.228-0.527,0.515-1.034,0.821-1.52c0.564-0.896,1.259-1.783,2.138-2.347
							c0.528-0.338,1.032-0.515,1.628-0.502c0.643,0.014,0.643-0.986,0-0.999c-2.411-0.051-4.142,2.331-5.147,4.244
							c-0.107,0.203-0.211,0.409-0.302,0.619c-0.107,0.248-0.073,0.536,0.179,0.684
							C636.936,291.707,637.301,291.654,637.409,291.405L637.409,291.405z"/>
					</g>
				</g>
			</g>
			<path style="fill:#984B3C;" d="M643.822,268.492c0,0-5.652,35.064,7.952,33.052c13.604-2.012,2.203-16.574,7.473-31.807
				C659.247,269.737,654.456,262.073,643.822,268.492z"/>
			<path style="fill:#222221;" d="M689.712,155.54c0,0,1.437,22.553,4.982,21.958s1.437-12.442,6.706-13.32
				c0,0,3.672-0.935,6.195,5.632c0,0,7.345-13.025,3.896-23.882c-3.449-10.858-11.241-11.113-11.241-11.113
				s-16.967-15.584-38.885-7.664c-21.918,7.92-27.666-6.642-28.688,0.894c-1.022,7.537,4.455,46.576,50.568,17.963
				c0,0-5.269,4.503-4.694,8.527C678.972,157.48,680.132,159.372,689.712,155.54z"/>
		</g>
		<path style="fill:#7A5FA0;" d="M596.679,252.523c0,0-20.939,24.086-46.009-0.762l-8.919,8.613l-1.833,55.393h66.858
			c0,0,6.581-50.916,1.599-59.347L596.679,252.523z"/>
		<path style="fill:#B5A2B8;" d="M596.121,251.917l0.431,75.78h12.762l-4.812-76.103
			C604.501,251.594,599.379,250.499,596.121,251.917z"/>
		<path style="fill:#E8AF8E;" d="M541.751,297.041c0,0,2.682,41.515,0,54.289c0,0,10.098,5.748,28.004,32.318l-9.453,4.471
			c0,0-40.878-27.847-41.239-35c-0.361-7.153-1.383-56.077-1.383-56.077H541.751z"/>
		<path style="fill:#7A5FA0;" d="M550.67,251.761l-4.724,48.92c0,0-20.154-4.599-37.398,2.299c0,0-2.874-6.851,4.79-11.76
			C513.337,291.221,510.21,249.401,550.67,251.761z"/>
		<path style="fill:#B5A2B8;" d="M542.49,251.917l0.431,75.78h12.762l-4.812-76.103C550.87,251.594,545.748,250.499,542.49,251.917z
			"/>
		<g>
			<path style="fill:#BC705C;" d="M533.258,396.468c0,0-20.467,0.073-22-24.264c-0.821-13.038,0.337-21.209,1.59-25.986
				c0.501-1.91-1.595-3.457-3.294-2.451l-6.919,4.099c0,0-3.257-22.226-9.964-20.31c-6.706,1.916-14.179,31.998,1.725,49.243
				c0,0-7.065-5.741-9.472-4.595c-2.407,1.146-0.491,34.294,41.279,35.252L533.258,396.468z"/>
			<path style="fill:#F2DBD1;" d="M632.992,375.047c0,0,1.15,9.964,4.471,12.774c3.321,2.81,5.748,8.559,2.044,10.091
				c0,0,14.307,32.573-21.332,44.069v4.062H511.258c0,0-6.706-36.252,10.73-46.79c17.436-10.538,42.993-10.881,47.076-19.236
				c4.083-8.355,18.07-12.57,18.07-12.57S620.41,379.582,632.992,375.047z"/>
			<path style="fill:#BC705C;" d="M530.206,412.325c1.245-7.471,16.236-11.506,13.318-21.602c-7.278,2.047-14.981,4.568-21.536,8.53
				c-10.068,6.085-12.082,20.735-11.99,32.037c1.227,0.609,2.539,1.073,3.985,1.314
				C524.799,432.604,528.854,421.789,530.206,412.325z"/>
			<path style="fill:#BC705C;" d="M637.463,387.821c-3.321-2.81-4.471-12.774-4.471-12.774c-3.94,1.42-9.91,1.205-16.252,0.24
				c-2.085,5.834-3.382,11.81-0.013,14.056c6.759,6.759,13.519,5.408,20.278,14.871c1.878,2.254,3.443,2.729,4.811,2.101
				c-0.82-4.992-2.309-8.403-2.309-8.403C643.211,396.379,640.784,390.631,637.463,387.821z"/>
			<path style="fill:#1D3345;" d="M633.503,363.04l1.916,14.371c0,0-24.334,8.247-49.626-4.595l7.09-11.117L633.503,363.04z"/>
			<path style="fill:#F2DBD1;" d="M598.344,313.893c0,0,16.191-8.718,28.166-1.916c11.975,6.802,16.558,19.272,31.232,23.855
				c16.861,5.267,4.982,30.657-11.784,31.519l-13.604,0.192c0,0,1.629,5.125-0.287,5.269c-1.916,0.144-6.754-3.88-6.754-3.88
				s1.054,3.066-1.82,3.449c-2.874,0.383-5.03-4.982-5.03-4.982s-1.341,4.263-5.652,4.551c-4.311,0.287-6.994-6.706-6.994-6.706
				s-1.724,5.173-8.335,5.173C590.871,370.417,598.344,313.893,598.344,313.893z"/>
			<path style="fill:#BC705C;" d="M598.344,313.893c0,0,11.209,6.227,8.143,19.065c-3.066,12.838-5.352,20.034-5.173,28.358
				c0.179,8.324-17.628,24.334-25.675,0c0,0-1.214,1.98-3.641,1.597c-2.427-0.383-4.151-4.471-1.852-7.92
				c2.299-3.449,3.768-8.431,4.726-24.142C575.83,315.138,596.311,312.456,598.344,313.893z"/>
			<g>
				<g>
					<path style="fill:#222221;" d="M618.961,444.692c0.195-2.144,0.118-4.333,0.044-6.479c-0.23-6.637-1.007-13.251-1.988-19.816
						c-0.149-0.997-1.664-0.573-1.516,0.418c0.972,6.502,1.728,13.059,1.94,19.634c0.067,2.069,0.136,4.177-0.052,6.243
						C617.297,445.699,618.87,445.693,618.961,444.692L618.961,444.692z"/>
				</g>
			</g>
			<g>
				<g>
					<path style="fill:#222221;" d="M595.43,444.295c-1.703-2.585-2.994-5.514-4.035-8.417c-2.241-6.249-3.173-13.007-1.779-19.554
						c0.21-0.986-1.305-1.408-1.516-0.418c-1.43,6.713-0.587,13.652,1.671,20.087c1.099,3.133,2.466,6.311,4.3,9.095
						C594.627,445.93,595.989,445.143,595.43,444.295L595.43,444.295z"/>
				</g>
			</g>
			<g>
				<g>
					<path style="fill:#222221;" d="M554.649,417.651c3.929,5.802,5.809,14.561,0.733,20.237c-2.851,3.188-6.961,4.907-10.993,6.047
						c-0.972,0.275-0.559,1.792,0.418,1.516c6.453-1.824,13.283-5.481,14.88-12.556c1.012-4.483-0.179-9.172-2.124-13.234
						c-0.459-0.959-0.959-1.92-1.557-2.802C555.442,416.024,554.08,416.81,554.649,417.651L554.649,417.651z"/>
				</g>
			</g>
		</g>
		<path style="fill:#E8AF8E;" d="M559.913,381.385c0,0,1.441-4.688,6.36-4.162c4.919,0.526,8.746-3.192,10.84-1.902
			c1.73,1.066-0.571,3.607-2.93,4.669c-1.727,0.777-4.129,0.668-3.828,1.07c0.301,0.402,2.6,2.484,4.286,2.902
			c1.916,0.475,11.683,2.12,12.139,2.137c3.409,0.131,3.058,1.813,3.058,1.813c-0.081,2.557-6.622,1.758-8.445,1.559
			c-2.751-0.3-7.276-1.136-7.276-1.136l-0.151,0.392c0,0,13.077,7.054,13.752,7.427c1.146,0.634,1.059,1.592,0.891,1.942
			c-0.256,0.533-1.025,1.1-2.659,0.637c-2.468-0.699-11-3.606-14.073-5.466c0,0,7.017,4.701,9.15,7.269
			c0.708,0.852,1.873,2.203,0.969,3.1c-1.031,1.022-3.06-0.528-3.389-0.742c-2.25-1.459-7.363-5.152-9.331-7.176l-0.475,0.235
			c0,0,5.475,5.434,6.181,7.514c0.068,0.201,0.437,1.19-0.357,1.672c-1.248,0.759-1.886-0.53-2.029-0.788
			c-0.712-1.28-8.317-7.688-9.113-8.224c-1.871-1.26-5.148-3.901-5.995-7.398C556.283,383.755,559.913,381.385,559.913,381.385z"/>
		<path style="fill:#222221;" d="M597.644,177.256c0,0-17.602,8.07-36.137-0.516c0,0-3.435,31.884-15.519,30.874
			c0,0-3.855-3.707-3.499-15.963c0.356-12.256,18.878-29.661,33.951-27.473C591.513,166.365,597.644,177.256,597.644,177.256z"/>
		<path style="fill:#222221;" d="M662.013,347.49c-1.221,1.315-3.085,1.802-4.826,1.368c-3.44-0.856-8.896-2.557-7.59-4.491
			c1.878-2.778,11.266-5.607,13.757-2.395C664.77,343.798,663.432,345.962,662.013,347.49z"/>
		<path style="fill:#222221;" d="M615.477,246.331c0.973,1.048,2.46,1.437,3.848,1.091c2.743-0.683,7.093-2.039,6.052-3.58
			c-1.497-2.215-8.983-4.471-10.969-1.91C613.279,243.387,614.346,245.112,615.477,246.331z"/>
		<path style="fill:#222221;" d="M615.194,343.463c-0.646,0.693-1.802,0.049-1.486-0.845c0.904-2.555,2.838-5.357,6.974-5.091
			c4.155,0.266,6.089,3.347,6.987,6.03c0.303,0.905-0.875,1.538-1.505,0.822C623.726,341.604,619.608,338.722,615.194,343.463z"/>
		<path style="fill:#222221;" d="M633.506,238.203c-0.408,0.594-1.139,0.042-0.939-0.724c0.571-2.189,1.794-4.59,4.408-4.363
			c2.627,0.228,3.849,2.868,4.416,5.166c0.191,0.775-0.553,1.318-0.951,0.704C638.898,236.61,636.296,234.141,633.506,238.203z"/>
		<path style="fill:#222221;" d="M622.457,235.848c0.32,0.466,0.894,0.033,0.737-0.568c-0.448-1.719-1.409-3.604-3.461-3.425
			c-2.062,0.179-3.022,2.252-3.468,4.057c-0.15,0.609,0.434,1.035,0.747,0.553C618.222,234.597,620.266,232.658,622.457,235.848z"/>
		<path style="fill:#FFFFFF;" d="M695.749,182.229c0,1.088,0.882,1.97,1.97,1.97c1.088,0,1.97-0.882,1.97-1.97
			c0-1.088-0.882-1.969-1.97-1.969C696.631,180.259,695.749,181.141,695.749,182.229z"/>
	</g>
</g>
</svg>
